<?xml version="1.0" encoding="UTF-8"?>
<svg id="Basketball" xmlns="http://www.w3.org/2000/svg" viewBox="0 0 603.34 602">
  <defs>
    <style>
      .cls-1 {
        stroke-width: .68px;
      }

      .cls-1, .cls-2, .cls-3 {
        stroke: #000;
        stroke-miterlimit: 10;
      }

      .cls-2 {
        stroke-width: 2.04px;
      }

      .cls-3 {
        stroke-width: .7px;
      }

      .cls-4 {
        fill: #d5603f;
      }
    </style>
  </defs>
  <g id="Basketball-2" data-name="Basketball">
    <circle class="cls-4" cx="301.46" cy="301" r="301"/>
    <path class="cls-1" d="M4.61,266.61s28.34-76.37,68.7-115.03c40.36-38.66,92.74-58.46,124.51-69.77,33.49-14.14,97.03-16.97,126.23-13.2,29.2-1.89,107.34,3.77,181.19,61.29,76,55.16,89.74,115.5,89.74,115.5,0,0-.86-21.69-13.74-39.6-11.16-17.92-28.34-41.49-35.21-49.97-6.87-8.49-45.51-38.66-62.69-49.03-17.17-10.37-67.45-35.1-100.7-39.71s-57.3-9.32-111.4-5.55c-54.1,3.77-104.76,24.52-117.64,30.17-12.88,5.66-32.63,16.03-49.81,29.23-17.17,13.2-37.78,27.34-59.25,57.52C23.07,208.62,3.32,251.05,4.61,266.61Z"/>
    <path class="cls-3" d="M599.68,336.41s-28.37,80.33-68.78,120.99c-40.41,40.66-92.85,61.49-124.66,73.39-33.53,14.88-97.15,17.85-126.38,13.88-29.23,1.98-107.46-3.97-181.4-64.46C22.39,422.2,8.64,358.73,8.64,358.73c0,0,.86,22.81,13.76,41.65,11.18,18.84,28.37,43.64,35.25,52.56s45.56,40.66,62.76,51.57c17.19,10.91,67.53,36.92,100.82,41.76,33.29,4.85,57.36,9.81,111.53,5.84,54.16-3.97,104.88-25.78,117.78-31.73,12.9-5.95,32.67-16.86,49.86-30.74,17.19-13.88,37.83-28.76,59.32-60.49,21.49-31.73,41.27-76.36,39.98-92.73Z"/>
    <polygon class="cls-2" points="1.02 319.4 602.31 310.53 602.31 304.93 1.02 314.62 1.02 319.4"/>
  </g>
</svg>