<?xml version="1.0" encoding="UTF-8"?>
<svg id="Layer_1" data-name="Layer 1" xmlns="http://www.w3.org/2000/svg" viewBox="0 0 765 397.87">
  <defs>
    <style>
      .cls-1 {
        fill: #bdcf9b;
      }
    </style>
  </defs>
  <path class="cls-1" d="M762,368.55c-1-7-15-25-17-31s-2-14-3-22c-1-2-5-1-5-1,0,0-12-14-13-19s-21-22-23-23-6-2-12-7-19-12-19-12v-4.7s-3-.59,0-8.94c3-8.35-2-26.35-2-26.35,0,0-8-11-5-20-2-11,1-9,1-18s-3-14-2-19c-1-5-1-27-1-27,0,0,1-10.02,0-13.01-1-2.99-7-9.99-7-16.99-2-6-3-13.17,0-19.58s6-22.42,6-22.42c0,0,6-21,7-23s4-6,4-6c0,0,2-1,0-1s-4,3-3-4c0,0-1-7,2-11s4-4,4-5-1-3-2-2-1,4-3,3,0-8,0-8c0,0-5-3-5,5,0,0-4,1-1,4s1,3,1,4,2,18-1,21-2,14-4,16-6,20-6,20c0,0-2,1-2-7-2-7-2-9-2-14s-3-6-3-11-1-16-1-16h-1v15s-4,0-6-2-2,2,2,3,5,6,5,6c0,0,2,1,2,5v10s2,3,2,5-1,15-1,15c0,0-8-3-8-2-1,1-2,3,1,4s6,0,6,5,0,8,1,11l4,12s3.96,5,4,8c.17,14.22-2.66,43.62-3,11-.02-2-3-1-3,0s0,4-2,6c-1,3-6,0-10-6s-6-10-7-12-1-2-2-3-2,0-1,1,3,4,2,5-4,0-4,0c0,0-1,1,1,2s4,0,6,5,6,8,6,8c0,0,7,6,9,8,0,0,4,3,4,6v18s2,5,2,10-1,6-1,6c0,0,0,6,1,13s5,14,1,16-7-1-8,0,0,3,3,4,8,2,9,8,0,16,0,16c0,0,0,7-2,8s-17-5-20-7-19-7-22-9-22-14-24-16-6-10-4-17c1-7,2-18,6-25s14-18,15-19,10-14,10-17,3-13,3-16,0-13-1-13-1-1-4,0c-3-4-4-7-7-10s-2-7-4-8-4,0-4,0c0,0-10-6-12-12s3-20,4-20,4-1,3-3,0,0-2,0-3-10-3-10c0,0-4-4-4,0s1,14,1,14c0,0,1,6-2,11l-3,5s-6-2-8-1-3,4-2,4,4,0,7,2,20,19,21,20,6,5,9,12,5,7,2,16-4,16-12,23-14,19-15,22-2,5-5,8-4,2-6,8-2,6-2,7-7-8-8-20c-6-8-5-20-8-25s-12-14-12-14c0,0,0-2-2-3s-8-4-12-11-20-17-20-17c0,0-11-11-16-22s-12-18-21-21-19-8-22-12-1-7-7-7-14-16-18-23-9-16-9-16c0,0-3,0-3,2s10,20,10,20c0,0,8,13,8,15s1,4,2,5,3,3-2,3-11,2-20-2-14-4-18-11c-6,1-19,0-19,0,0,0-1,3,11,5,13,1,15,7,20,8s5,4,13,4h24s6,6,14,10,17,6,20,10c5,4,14,17,17,27s-6-9-21-8c-12,0-10-3-15-4s-9-7-11-6-5,4,1,6,10,6,10,7-3,8-7,7-9-10-9-10c0,0-6,1-3,4s7,3,8,10l4,4h3s-2-5,9-11,17,2,20,5c2,4,8,5,18,9s25,24,27,26,13,10,17,22,5,22,11,30-1,7-4,1-6-4-10-5-38-3-40-4c-3-1-20-24-21-29s-10-11-14-15-22-14-26-18-12-5-19-6-24-7-27-9-7-2-12-2-14-5-20-12c-6-5-14-6-24-19,0,0-19-17-29-17-7-3-9-3-13,0-5,2-13,0-22-3s-13-4-13-4c0,0-3,0,0,2s-14-2-14-2c0,0-2,2,4,3s13,3,15,4,17,4,21,4,10-1,14,0c5,1,7,0,14,5,8,4,15,9,21,16s-1,1-6,9-3,5-4,8c-2,1-3-1-9,0s-11,1-12,1-4,3-1,3,11-2,12-1-4,2-5,4,0,3,4,0,29-2,29-2c0,0,18,6,23,7s6,2,4,4-4,3-3,9,3,9,2,13c0,0-5,4-9,7s-5,5-7,6-5-3-7-8-3,1-2,3,5,5,5,10-8,2-14,2h-23s-1-3-6-2-18,0-18,0c0,0-15-11-18-14s-1-6-3-8c-2-1-1,3-6-6-6-7-12-10-12-12s-3-3-3-3c-1.24,4.42-6.7,2.59-12,1,0,0-7-2-11-2s-9,3-12,5-2,2-2,2c0,0,5-3,7-4s11-2,13-1-1,3,6,3,10,0,12,2,14,15,14,15c0,0,5,6,5,10,1,4,12,9,14,12s3,3-4,7-12,7-14,7-12,2-20,1-13-2-16-3-3,2-3,2c0,0-1,1,4,1s0,2,5,3,6,2,8,2,12-1,14,0-5,4-6,5-6,5-2,6,6-6,13-9c0,0,21-12,25-13s24-1,30,0,33,1,36,2c0,0,25,7,27,8s7,2-4,3-24,7-26,6-8-6-10-12-3-5-3-3,3,6,3,9,1,4,3,5,2,3,0,6-4,6-10,8-13,2-20,4-10,5-24,5-34,2-42,0-7,0-15-10c-9-7-16-9-16-9l-2-6s-2-1-2,1,2,3,2,4-10,1-11,0-4,2,0,3,6,1,13,2,14,8,15,10,1,3-7-1c-9-3-26-5-28-6s-9-2-13-17c-10-12-12-24-12-24v-19c-1-6-4-8-4-15s2-6-1-8-9-9-11-12-3-5-3-7-1-1-1-1c0,0,0,2-1,2s-2-3-3-3-2,3,1,6c4,3,6,4,10,11s5,3,5,13c1,8,3,8,4,15s3,8-2,9c-1,1,0,4-5,0s1,7,4,8,7,13,7,16-12,0-20-4c-9-2-24-7-27-9,0,0-4-4-6-5s0,1-3,0-18-8-21-10-13-7-13-13c-2-5-5-3-5-3,0,0,4,1,3,4s-2,3-8-3-13-12-15-17-4-11-2-16,1-12,1-12h-1s-1,7-1,8-1,5-2,6-2-1-2,0,2,5,3,10,0,4-3,4,0,1,3,2,10,10,12,12,8,9,11,10,6,1,10,5c7,5-3,4-7,5s-5,2-5,3,4-2,9-1c6,0,10-1,17,2s17,8,17,8l16,8c2,1,32,9,34,10s10,4,11,7,10,12,3,14-14,2-18,4-16,7-22,10-11,5-16,3-11-3-17-13c-3-10-4-7-6-7s-7-7-11-10-12-9-23-10-11-2-11-3-2,2-2,2c0,0-9,3-18,3s-5,3-14,0c0,0-5,0-12-2s-9,1-9,1c0,0,2,1,4,1s5,0,8,1,7,1,6,2-1,3,0,3,3-3,8-3,7-1,10-1,12,0,14-1,5-3,10-2,16,3,20,6,16,14,16,14c0,0,6,5,6,10v6s0,12-2,15-11,10-11,10c0,0-13,12-16,12s-7,0-8,1v2s2-1,3,0,1,8-3,11-18,10-20,12-10,8-13,13c-4,3-6,2-6,7,0,0,1,3,4,1s11-13,17-17,20-9,23-14,5-11,10-15,25-19,25-19c0,0,6-6,11-5s5-1,5,1-6,9-6,9l-11,18s-6,9-8,11-9,10-9,10c0,0-3,9-11,12s-12,4-12,5,0,3,2,2,6-4,8-4,4,0,2,2-9,10-11,12c-1,3-9,8-15,9s-4,3-4,3c0,0,0,1,2,1s17-7,17-7c0,0,1-2,2,1,1,1,1,0,1,0,0,0,0-6,4-8s16-21,16-21l14-14s3,0,4-1,1-4,1-5,18-28,21-30,9-12,19-16c9,0,10,3,13,3,0,0,4,2,3-2-2-3-7,0-9-3,0,0,9-6,22-5,11,0,21-3,30,2,0,0,12,3,17,5s19,8,25,8,1,4,1,8v11c0,3-3,1-5,5-2,3-3,1-3,5,0,0,0,4-3,5s-33-1-33-1c0,0-10-4-12-7s-5,1-4,2,5,3,6,4,4,2-3,3-14,0-19,1c-4,1-5-1-8,1s-14,2-17,2-5,0-7-3c-2.43-2.61-16.51-6.15-14-3,.88,1.11,5,1,7,2s4,2,5,3c2,1-2,3,0,4s4,0,4,0c0,0-2-1,6-1s15,0,18-2,18-1,18-1c0,0,0,1,1,2s3,0,4-1,18-1,18-1h23s3,0,3,3c1,3-1,10-4,12,0,0-5,6-6,10s-8,16-10,17-9,9-9,9c0,0-9,13-11,14,0,2,0,3-3,5s-6,9-9,10,1,4,2,3,12-13,12-13l13-18s2,0,2,3,4,1,4,1c0,0-2-6,1-9s11-12,12-17,11-18,12-22c0,0,1-3,10-7s24-10,28-14,19-17,22-20,23-10,27-13,17-3,20-7,3,1,0,5-2,8-10,16-7,13-7,13h-1c-1,0-1,7-1,7h3s0,3-1,5-3,6-4,7-2,4-1,5,3-6,6-7,2-1,2-7-1-10,1-12,2-4,6-8,5-10,7-11,5-15,7-15,15.73-4,20.86-2.5c5.14,1.5,17.14-1.5,24.14,3.5s15.78,6,19.89,9.5,20.11,6.5,26.11,7.5,28,4,34,6,40,6,45,6,32,6,38,5,18,2,21,4,17,10,26,13,22,8,27,13,10,7,14,7,29,13,31,16c4,3,12,10,17,18,6,7,13,10,13,21,4,11,10,18,10,23s9,19,11,22,16,14,17,20,4,4,4,4c0,0,4,0,8-7s4-9,4-9c0,0-2-6-3-13ZM342,101.55c-5,0-13-1-12-1s4-5,8-9,7-2,15,3,15,13,15,13c-1,1-21-6-26-6ZM112,216.55c-3,1-7,2-7,2l1-13s4,1,6,4,5,3,5,4-2,2-5,3ZM307.79,212.71c-4.97,1.54-9.38,3.04-12.9,4.48-1.33.9-2.29,2.18-3.88,5.36-2,4-6,4-10,9s-22,15-25,16-8,6-11,5c0,0-2-1,0-5s6-5,7-7-1-10,1-13,2-8,10-9,31-1,31-1c.28-.12.59-.24.88-.36.34-.23.71-.44,1.12-.64,1.12-.56,6.89-2.36,11.79-3.84,2.3-.71,4.71-1.43,7.21-2.16,0,0-3.33.98-7.21,2.16ZM412,191.55c-2,1-6-1-8-2s-6-2-9.82-3.25-13.18,1.25-21.96,0c-8.77-1.25-19.23,2.25-18.23.25,3-2,11-3,17-4,6-2,15-2,20,0s8,3,16,6,5,3,5,3ZM542,214.55s-13-1-18-2-20-1-25-2-25-3-29-5c0,0-12-1-20-4-7-2-16-2-24-12-6-8-7-9-10-11-2-1-1-2-6-1-4,0-3-5-12-7s-12-3.72-19.5-5.36c-7.5-1.64-13.5-1.64-19.5-6.64s-3-6-3-6c0,0,1.63,1,2.32,0,.68-1,6.68-8,8.68-9s5-3,6-1,2,2,2,4c1,1,2,0,2,0,0,0-1-3.89,0-4.44s2-.56,0-1.56-4-8-4-12c-1-3-2-9,3-11s13-2,13-2c0,0,11-1,20,5s15,2,18,4,12,5,15,8,17,12,22,16,15,17,16,21c2,4,7,10,4,14,0,0-5,4-13,0-8-3-17-4-24-9s-13-6-16-10-1-4-2-10l-1-9s-1-3-2-2,0,3,0,5-1,8-1,10,1,5-4,5-12-1-18-3c-5-1-3,1-8-3-5-2-9-3-10-3s0,2,2,3,6,2,6,2c0,0,0,3-4,2-1,0-1,3,2,3s11,0,16,2,11,1,14,1,12,3,15,5,10,5,14,8,11,3,16,6,10,2,13,5c3,2,10-1,13,0s4,3,14,4,22,2,27,4,9,1,15,9c5,5,5,3,6,7-1,2-12-1-12-1ZM578.94,212.05s-4.94-5.5-2.94-14.5,5-12,5-12c0,0-1,8-2,11,0,3,1.88,9-.06,15.5Z"/>
</svg>