<?xml version="1.0" encoding="UTF-8"?>
<svg id="Layer_1" data-name="Layer 1" xmlns="http://www.w3.org/2000/svg" viewBox="0 0 1090.96 638.34">
  <defs>
    <style>
      .cls-1 {
        fill: rgba(109, 110, 113, 0);
        stroke-width: 8px;
      }

      .cls-1, .cls-2 {
        stroke: rgba(255, 255, 255, 0);
      }

      .cls-1, .cls-2, .cls-3 {
        stroke-miterlimit: 10;
      }

      .cls-2 {
        stroke-width: 22px;
      }

      .cls-2, .cls-3, .cls-4, .cls-5 {
        fill: #010101;
      }

      .cls-3 {
        stroke: #fff;
      }

      .cls-4 {
        font-family: MyriadPro-Regular, 'Myriad Pro';
        font-size: 19.06px;
      }
    </style>
  </defs>
  <path class="cls-1" d="M3.9,370.16l1.35,5.9s.5,2.89,2.83,2.33-1.87-2.72-4.18-8.23Z"/>
  <g>
    <text class="cls-4" transform="translate(640.5 396.15)"><tspan x="0" y="0"> </tspan></text>
    <g>
      <g>
        <path class="cls-2" d="M742.71,426.43c-30.75,23.72,124.54,134.18,172.95,16.1,35.05-85.49-244.8-425.3-244.8-425.3,0,0-216.89,259.71-220.39,343.96"/>
        <g>
          <path class="cls-2" d="M617.86,417.7c-8.79-.63-14.51,1.26-17.17,5.66-2.66,4.4-4.27,10.55-4.83,18.44l-3.63,50.56c-10.1,5.22-20.54,8.79-31.31,10.72-10.77,1.93-22.7,2.43-35.78,1.49s-25.59-4.36-36.43-10.18c-10.85-5.83-19.98-13.42-27.42-22.78-7.44-9.36-12.98-20.07-16.61-32.14-3.64-12.06-4.98-24.82-4.01-38.27,1.22-17.03,5.73-32.2,13.53-45.52,7.8-13.31,18.23-23.6,31.27-30.87,13.04-7.26,28.08-10.28,45.12-9.06,16.31,1.17,29.78,4.26,40.42,9.25,10.63,5,18.16,10.63,22.58,16.89,3.11,4.37,4.68,10.07,4.72,17.1.04,7.03-.16,13.59-.6,19.68M573.76,429.54"/>
          <path class="cls-2" d="M618.16,414.51v134.6l107.1-7.05-6.82-188.42c0-8.09-1.12-14.6-3.37-19.55-2.25-4.94-7.41-7.41-15.5-7.41h-5.39v-5.39h70.09c4.67,0,9.93.32,15.77.94,5.84.63,11.77,1.98,17.8,4.04,6.02,2.07,11.59,5.08,16.71,9.04,5.12,3.95,9.26,9.16,12.4,15.63,3.14,6.47,4.72,14.56,4.72,24.26,0,9.17-1.53,16.85-4.58,23.05-3.06,6.2-7.06,11.19-12,14.96-4.94,3.78-10.11,6.61-15.5,8.49-5.39,1.89-10.51,3.15-15.36,3.78-4.85.63-8.81.94-11.86.94h-29.66l-18.43-2.13"/>
        </g>
        <path class="cls-5" d="M614.72,413.79l-9.38-18.55c44.43,1.42,108.9,3.51,104.45,28.66-.09.53-.22,1.07-.38,1.63,0,0-93.33-9.05-94.69-11.75Z"/>
      </g>
      <path class="cls-2" d="M618.16,549.11v63.45s-23.15,13.52-19.82,14.56,153.71-1.66,151.42-5.41c-2.29-3.74-23.83-16.22-23.83-16.22l-.67-63.43"/>
      <path class="cls-3" d="M1090.45,595.8l-.12-3.25-.42-.09-.2,3.29s.44.86.74.05Z"/>
      <rect class="cls-5" x="621.86" y="540.23" width="99.85" height="9.07" transform="translate(-33.35 43.91) rotate(-3.65)"/>
    </g>
    <path class="cls-5" d="M628.65,502.09l.2-5.2s-3.46-14.17-4.37,1.19c-.91,15.36,4.17,4.01,4.17,4.01Z"/>
    <rect class="cls-5" x="613.5" y="410.39" width="9.12" height="7.22"/>
  </g>
</svg>