<?xml version="1.0" encoding="UTF-8"?>
<svg id="Layer_1" data-name="Layer 1" xmlns="http://www.w3.org/2000/svg" viewBox="0 0 466.49 555.57">
  <defs>
    <style>
      .cls-1 {
        fill: #111;
      }

      .cls-2 {
        fill: #b2801d;
      }

      .cls-3 {
        fill: #e7a324;
      }

      .cls-4 {
        fill: #1c1c1c;
      }

      .cls-5 {
        fill: #1f1f1f;
      }

      .cls-6 {
        fill: #202020;
      }

      .cls-7 {
        fill: #a0801d;
      }

      .cls-8 {
        fill: #0a0a0a;
      }

      .cls-9 {
        fill: #242424;
      }
    </style>
  </defs>
  <path class="cls-9" d="M412.23,305.04c6.84-3.42,25.64-30.76,47-106.82,21.36-76.05-15.38-98.27-15.38-98.27,0,0,11.11-28.2-11.11-68.36C390.02-6.87,341.31-.89,299.43,2.53c-41.87,3.42-75.32,19.49-75.32,19.49,29.79,9.23,48.03,60.77,48.03,60.77,0,0-23.98,19.73-31.9,10.07-9.63-17.35-14.04-4.56-14.04-4.56,0,0,10-.31,6.15,8.66-3.85,8.97-14.95,2.14-20.8,21.94-5.85,19.81-4.41,15.23-12.17,24.43-8.62,28.85,7.6,23.26,7.6,23.26,0,0,46.31,120.5,54.47,127.34,8.16,6.84,8.07,13.67,2.94,18.8s-10.25,17.95-5.98,42.73c1.88,10.92,1.44,29.79.98,48.57,3.08,11.16,6.15,22.32,9.27,33.47-3.12-11.15-6.2-22.31-9.27-33.47-.59,23.84-1.21,47.52,2.84,54.51,14.93,9.94,21.82,2.88,31.35-.69,9.54-3.57,9.26-3.27,19.52,8.69,19.65,12.82,45.29,11.11,71.78,2.56,17.9-5.77,15.51-15.06,13.14-18.36-.39.14-.77.29-1.17.42-1.11-2.22.03-2.01,1.17-.42,17.51-6.5,15.06-27.57,15.06-56.84,0-31.62,5.13-78.62,1.71-80.33s-9.4-5.13-2.56-8.55Z"/>
  <path class="cls-9" d="M222.53,191.39c-2.87-7.18-5.76-15.57-9.65-23.13-7.28,6.65-16.12,12.6-27.1,17.15-25.64-6.84,32.48-91,42.73-99.74,9.59-8.18,2.37,25.28,35.89,4.03,31.96-20.26-35.89-71.78-54.69-74.35-16.24-2.56-118.78-22.22-172.62,23.93C-16.75,85.42-1.36,170.88,17.44,248.64c14.53,77.76,12.82,87.16,19.65,98.27,6.84,11.11,12.82,17.95,12.82,23.07s1.71,13.67-6.84,16.24c-13.67,5.13-9.4,28.2-7.69,88.87,10.25,52.13,18.8,44.44,18.8,44.44l-2.56,13.67s5.13,19.65,82.89,22.22,89.73-28.2,89.73-28.2c0,0-1.71-19.22,4.27-27.13,0-7.91-4.27-95.32,0-126.39,0,0-4.27-9.7-10.25-13.12-5.14-2.94,28.8-55.03,38.49-69.68-11.46-32.92-23-65.89-34.21-99.52Z"/>
  <path class="cls-6" d="M256.74,290.9c1.59-2.41,2.53-3.81,2.53-3.81,0,0,80.33-140.15,16.24-187.15-29.49-20.25-24.79,33.71-62.63,68.3,3.89,7.57,6.78,15.95,9.65,23.13,11.21,33.63,22.75,66.59,34.21,99.52Z"/>
  <path class="cls-9" d="M45.94,384.92s40.29,21.39,89.85,17.12,83.75-17.09,86.31-23.93c2.56-6.84-6.84-15.38-6.84-15.38l2.99-2.14s9.83,10.44,10.25,13.12,0,126.39,0,126.39c0,0-4.7,8.75-4.27,27.13-5.55,15.81-49.12,26.48-61.52,27.55-12.4,1.07-94.43,1.07-111.1-21.57.43-11.54,2.56-13.67,2.56-13.67,0,0-8.12,9.83-18.8-44.44-2.14-50.85-5.55-88.45,10.56-90.18Z"/>
  <path class="cls-3" d="M41.36,393.91s40.16,19.65,72.64,18.8,78.62-.85,99.98-15.38c21.36-14.53,14.53-14.02,14.53-14.02,0,0,4.27,93.93,0,116.78-4.27,22.85-51.27,28.84-61.53,32.25s-91.44.85-109.38-9.4c-17.95-10.25-26.49-98.27-16.24-129.04Z"/>
  <path class="cls-4" d="M217.83,108.07c-3.45.73-7.69,12.82-7.69,18.8s-17.95,44.44-17.95,44.44c0,0-3.48-1.71-5.59,0,0,0-.48,2.86-3.81,1.71-12.01-2.91,28.13-76.02,43.41-84.72,12.8-2.6,7.19,16.5-8.38,19.77Z"/>
  <path class="cls-3" d="M191.76,182.69c3.12-5.35-.3-20.08-6.02-9.9-3.95,2.82-5.45-7.96-4.19-8.58-4.35.67-3.92,21.72,4.23,21.2,1.71-.11,5.98-2.72,5.98-2.72Z"/>
  <path class="cls-2" d="M376.34,309.31s-23.07-55.55-23.07-93.15,6.55-30.76,6.55-30.76c0,0,5.42,18.8,2.85,35.04s10.25,70.93,17.09,77.76c0,1.71-3.42,11.11-3.42,11.11Z"/>
  <path class="cls-2" d="M290.03,332.39s-9.4-65.79,0-76.05,17.09-7.7,16.24,19.65c-.85,27.35,3.42,58.96,3.42,58.96,0,0-14.53,1.71-19.65-2.56Z"/>
  <path class="cls-7" d="M291.47,332.96s-7.08-65.79,0-76.05c7.08-10.26,12.87-7.7,12.23,19.65-.64,27.35,2.57,58.96,2.57,58.96,0,0-10.94,1.71-14.8-2.56Z"/>
  <path class="cls-5" d="M293.03,268.72s.85,18.8,1.71,28.2c.85,9.4,3.04,23.1,3.04,23.1,0,0-.38-27.08,0-34.49s-.85-18.79-2.37-22.93c-1.52-4.14-2.37,6.12-2.37,6.12Z"/>
  <path class="cls-1" d="M395.14,76.02c-15.38-5.98,8.88-16.92,31.69,0,21.1,15.65,17.87,17.95,15.31,19.65s-8.55-5.98-17.09-8.55-19.99-4.82-21.54-4.58c-4.7.73-9.85-1.09-8.37-6.53Z"/>
  <path class="cls-8" d="M370.36,88.84l2.56,7.69s5.13-7.69,12.82-9.4,12.09-5.1,12.09-5.1c0,0-3.54-8.57-6.11-10.28s-21.36,17.09-21.36,17.09Z"/>
  <path class="cls-8" d="M337.89,334.1v-19.37s22.22-1.14,23.07-2.85,17.09,2.56,22.22,2.56,14.67-1.71,23.14-5.13c3.35,0,4.2,11.11-6.91,14.53-11.11,3.42-17.95,7.2-19.65,7.87s-35.89,4.09-41.87,2.38Z"/>
  <path class="cls-3" d="M267.82,325.55s4.26,8.97,47.85,9.02c44.63.05,63.6-1.15,76.91-5.6,13.58-4.55,25.09-8.45,15.96-17.9-6.56-8.59,6.26,2.51,6.26,2.51,0,0,8.26,17.2-10.83,22.27-18.23,7.64-73.77,12.76-104.54,9.35s-31.62-11.93-31.62-11.93c0,0-2.56-1.75,0-7.73Z"/>
  <path class="cls-3" d="M259.88,449.49s2.76,8.74,2.36,9.05,9.05,8.35,19.28,4.33,14.5-4.02,12.79-7.44-6.08-1.66-12.87,1.3c-6.79,2.97-20.95-2.95-21.56-7.25Z"/>
  <path class="cls-3" d="M265.25,446.9c-.11,1.48,36.32,11.32,56.16,11.65,19.11.31,62.31,4.04,76.62-7.78,12.79-10.56,14.39-12.84,13.87-18.61-1.37-4.06-5.65,7.05-17.61,11.32-11.96,4.27-54.69,10.25-90.58,3.42-35.89-6.84-38.45-9.37-38.45-9.37v9.37Z"/>
  <path class="cls-3" d="M398.03,450.76s4.35,9.48-6.53,15.63-40.24,11.78-60.6,7.68-24.63-16.21-24.63-16.21c0,0,2.56-.71,8.55,3.57s22.22,7.69,39.31,5.13c17.09-2.56,39.1-6.8,43.91-15.79Z"/>
  <path class="cls-8" d="M286.86,454.52s-10.99,7.82-26.98-5.03c-.61-12.85-2.22-129.47-2.22-129.47,0,0,7.59-5.68,7.59-14.17s3.42,48.76,2.56,61.58c-.85,12.82-2.56,79.47-2.56,79.47,0,0,19.29,5,21.61,7.63Z"/>
  <path class="cls-9" d="M301.56,346.28s43.01,2.08,70.43-3.34c27-2.44,33.52-5.91,41.37-12.29,3.57-1.26-3.93,94.88-1.46,101.5,2.47,6.62-.95-5.05-4.79,2.5-3.85,7.55-21.94,11.73-36.39,13.48s-72.87-2.37-72.87-2.37l3.72-99.47Z"/>
  <path class="cls-6" d="M372.93,96.53l-16.24,27.35s-5.13,13.67,3.42,52.98c8.55,39.31,19.46,64.97,21.27,73.93,1.81,8.96,3.64,33.5,2.72,40.03-.92,6.53-8.09,22.7-8.09,22.7,0,0,20.98,2.63,30.31-4.2,9.33-6.84,28.24-31.69,40.57-71.39,12.34-39.7,27.22-85.43,15.08-110.84-12.14-25.42-26.67-37.89-42.48-41.48-20.08-7.86-39.74-.17-46.57,10.94Z"/>
  <path class="cls-6" d="M300.14,164.21s12.41,2.73,16.96,0,16.22-36.46,38.06-59.53c19.91-21.03,22.03-22.81,34.05-33.03,13.11-11.16,30-1.6,37.62,4.38,7.62,5.98,18.73,17.27,18.73,17.27,0,0,1.09-41.06-8.86-53.95-9.94-12.89-31.18-32.87-52.61-34.42s-59.76-9.65-121.35,3.8c-61.59,13.45-18.74,17.62-8.12,37.33s8.06,46.2,20.88,53.89c12.82,7.69,27.05,22.55,24.63,64.26Z"/>
  <path class="cls-3" d="M191.76,182.69s16.41-8.53,17.18-11.02-1.96-5.07-1.96-5.07c0,0-7.52,3.58-10.09-8.03-1.93-24.43-8.03,24.13-5.14,24.13Z"/>
  <path class="cls-9" d="M396.85,451.17c.4-.13.79-.27,1.17-.42-1.14-1.59-2.28-1.8-1.17.42Z"/>
  <path class="cls-6" d="M259.27,287.1s-26.49,47-44.01,75.63c-17.52,28.63-34.68-174.97-34.68-174.97,0,0,26.92-14.44,32.3-19.5s46.39,118.84,46.39,118.84Z"/>
  <path class="cls-6" d="M38.49,407.11s65.26,28.68,124.22,18.42c58.96-10.25,67.52-25.37,67.52-25.37,0,0-.01,95.02-1.72,99.93-58.09,28.14-118.67,30.83-182.2,3.5-2.05-.46-16.62-73.22-7.82-96.49Z"/>
</svg>