<?xml version="1.0" encoding="UTF-8"?>
<svg xmlns="http://www.w3.org/2000/svg" viewBox="0 0 272.63 287.45">
  <defs>
    <style>
      .cls-1 {
        fill: #ad8359;
      }

      .cls-2 {
        fill: #c69c6d;
      }

      .cls-3 {
        stroke: #000;
        stroke-width: .15px;
      }

      .cls-3, .cls-4 {
        stroke-miterlimit: 10;
      }

      .cls-4 {
        fill: none;
        stroke: #ad8359;
        stroke-width: .21px;
      }

      .cls-5 {
        fill: #d5603f;
      }

      .cls-6 {
        fill: #ddcdcd;
      }

      .cls-7 {
        fill: #5b432c;
      }
    </style>
  </defs>
  <g id="Lefr_Forearm" data-name="Lefr Forearm">
    <path id="Left_Forearm" data-name="Left Forearm" class="cls-2" d="M107.38,139.2S26.23,232.21,24.54,238.08C19.47,242.27-.82,278.3.03,285s65.09-2.51,65.09-2.51c0,0,19.44-33.52,22.82-41.9s14.37-37.71,26.2-48.6c10.14-10.89,22.82-31.84,27.89-32.68,5.07-.84-29.59-10.89-34.66-20.11Z"/>
  </g>
  <g id="Left_Hand" data-name="Left Hand">
    <path class="cls-2" d="M105.55,140.86c-1.44-.32-1.87-21.96-3.4-29-5.1-7.46-10.2-29-7.65-28.17s4.25,14.32,11.05,22.49c6.8,8.17,15.3,17.28,22.1,18.11,3.4,2.49,0,9.11,11.9,3.31,11.9-.83,22.66,4.52,34.21,3.34,13.38-3.34,16.78-10.8,16.78-10.8l2.55,15.74s-35.52,17.93-49.63,22.22-37.9-15.6-37.9-17.25Z"/>
    <path class="cls-1" d="M114.85,135.5s4.29,1.43,8.57,2.14c2.86,2.14,4.29,2.24,0,6.48-4.29,4.23-2.86,7.09,0,4.23s5.71-5,5.71-5c0,0,4.29-5.71,7.14-5.71s16.84-1.43,16.63-2.14-1.63-6.43-8.77-5.71-10.71,2.14-11.43,2.14-2.14,5-2.86,2.86-3.57-7.86-6.43-7.86-7.14-2.14-7.14-3.57-6.43-8.57-6.43-8.57c0,0-2.14-.71-1.43,1.43s2.86,18.57,6.43,19.28Z"/>
    <path class="cls-6" d="M94.47,86.7v-2.03s-1.27,1.11,0,2.03Z"/>
    <path class="cls-2" d="M110.48,115.17s9.31,6.28,11.47,3.37,8.65-11.67,8.65-11.67c0,0,6.36,1.44,6.36.74,0-.7,9.42,2.79,9.84,2.09s7.7,3.49,10.7,3.14,10.27,4.88,11.98,4.18,13.35,10.8,13.35,10.8l-5.01,1.88-12.18-.82-15.22-.84-15.1-.88c-6.65-2.35-12.69-4.59-17.62-6.61,0,0-.02.53-3.21-2.03s-3.99-3.37-3.99-3.37Z"/>
    <path class="cls-2" d="M129.74,107.58l20.67-34.18s4.9-2.4,6.65,1.27c-.83,3.17-14.97,34.26-14.97,34.26,0,0-6.41,1.1-12.36-1.35Z"/>
    <path class="cls-2" d="M148.06,109.92l17.11-17.55c.83.34,2.46,2.37,5.18,5.23l-12.47,15.27c.39,2.02-7.36-.07-9.81-2.95Z"/>
    <path class="cls-2" d="M168.2,117.54l13.38-12.73c2.83,1.13,5.7,4.03,8.88,7.06l-16.99,9.52-5.27-3.85Z"/>
    <path class="cls-7" d="M117.68,118.49s.83,3.31,9.11,5.8c3.31,4.97,1.56,5.2,4.09,5.57,3.45.5,10.83-2.39,14.14-1.91s18.15,6.19,25.23,3.34c13.09-1.79,7.46-1.83,6.62-2.04l-27.71-1.64s-12.43-.83-13.26-.83-13.26-5.8-14.91-6.63l-3.31-1.66Z"/>
  </g>
  <g id="Basketball">
    <g id="Basketball-2" data-name="Basketball">
      <path class="cls-5" d="M112.35,18.91S134.69.05,160.77,0c26.08-.05,48.81,16.74,57.38,29.33,8.56,12.59,12.15,31.93,12.22,43.29-2.26,10.67-7.24,33.61-27.02,47.7-19.77,14.09-51.07,19.04-72.4,7.49-22.42-10.34-32.23-30.73-35.35-36.72-3.11-6-4.44-23.97-4.44-23.97,0,0,.08-26.54,21.18-48.2Z"/>
      <path class="cls-3" d="M92.96,65.16s2.34-19.34,10.75-26.08c8.41-6.75,24.61-18.74,51.08-20.09,26.48-1.35,47.66,10.04,47.66,10.04,0,0,14.33,6.3,23.67,21.29.78-1.2-7.63-11.99-10.43-14.69-2.34-5.1-28.19-16.64-40.49-18.29-13.55-4.05-44.07,2.4-57.78,9.44-13.7,7.05-24.61,20.99-24.45,38.37Z"/>
      <polygon points="230.22 68.72 91.3 68.72 92.96 65.16 229.08 65.16 230.22 68.72"/>
      <path d="M92.96,69.53s-2.88,19.53,23.59,35.42,59.32,9.29,59.32,9.29c0,0,26.31-6.3,35.66-14.24,9.34-7.94,16.3-16.89,16.3-16.89l-1.1,3.58s-17.37,22.45-40.26,28c-22.89,5.55-54.5,3-67.27-5.7-12.77-8.69-29.43-21.07-26.24-39.47Z"/>
    </g>
  </g>
  <g id="Right_Forearm" data-name="Right Forearm">
    <path id="Right_Forearm-2" data-name="Right Forearm" class="cls-2" d="M185.63,116s6.63,7.46,13.26,71.26c9.94,48.89,8.29,54.69,11.6,59.66,3.31,4.97,62.14-12.43,62.14-12.43,0,0-53.03-125.94-51.37-135.06-30.66,14.09-35.63,16.57-35.63,16.57Z"/>
  </g>
  <g id="Right_Hand" data-name="Right Hand">
    <g id="Right_Hand-2" data-name="Right Hand">
      <path class="cls-2" d="M185.63,116s-23.2-23.2-32.31-38.11c0,0-3.31-5.8-9.94-6.63s-26.51-2.49-26.51-2.49c0,0-4.97,0-6.63-4.97s6.63-4.14,6.63-4.14c0,0,17.05-.93,17.64-.05s15.51.88,18.82,3.37c2.49-2.49,4.14-4.97,4.14-4.97,0,0-10.77-14.91-23.2-20.71-12.43-5.8-5.8-10.77-5.8-10.77,0,0,3.31-3.31,10.77,3.31,13.26,6.63,21.54,12.43,27.34,19.89,1.66.83,3.31,2.49,3.31-1.66s-16.79-20.71-22.07-23.61-2.79-8.7-1.13-8.7c3.31-.83,12.43,4.14,14.91,6.63s10.77-.83,14.91,12.43l8.29,10.77s4.14-.83,4.14-1.66-14.91-16.57-14.91-20.71,3.31-4.97,3.31-4.97c0,0,13.26,5.8,16.57,14.09,3.31,8.29,15.74,29,15.74,29l9.11,10.77s9.94-13.26,12.43-10.77c4.75,1.72-3.47,26.63-9.94,38.11l-35.63,16.57Z"/>
      <path class="cls-6" d="M132.6,30.66l2.49-2.49s-4.14-3.31-5.8-.83-.83,4.97,3.31,3.31Z"/>
      <path class="cls-6" d="M148.34,19.89l3.31-1.66s-2.49-2.49-4.14-.83,0,1.66.83,2.49Z"/>
      <path class="cls-6" d="M178.17,22.37l3.31-.83-3.31-1.66s-2.49.83,0,2.49Z"/>
      <path class="cls-6" d="M228.68,67.12s-2.22-2.49-1.11-3.31,8.87-.83,1.11,3.31Z"/>
      <path class="cls-6" d="M115.62,63.8c.91-.15.6-4.18.6-4.18-6.16.32-7.75,5.34-.6,4.18Z"/>
      <path class="cls-4" d="M175.9,34.54s-4.91-2.5-4.59-4.68-6.11-6.88-7.82-5.17"/>
    </g>
  </g>
</svg>