<?xml version="1.0" encoding="UTF-8"?>
<svg id="Seats" xmlns="http://www.w3.org/2000/svg" xmlns:xlink="http://www.w3.org/1999/xlink" viewBox="0 0 1970 743.69">
  <defs>
    <style>
      .cls-1 {
        fill: url(#linear-gradient-61);
      }

      .cls-2 {
        fill: url(#linear-gradient-15);
      }

      .cls-3 {
        fill: url(#linear-gradient-13);
      }

      .cls-4 {
        fill: url(#linear-gradient-28);
      }

      .cls-5 {
        fill: url(#linear-gradient-65);
      }

      .cls-6 {
        fill: url(#linear-gradient-69);
      }

      .cls-7 {
        fill: url(#linear-gradient-53);
      }

      .cls-8 {
        fill: url(#linear-gradient-42);
      }

      .cls-9 {
        fill: url(#linear-gradient-46);
      }

      .cls-10 {
        fill: #00ddeb;
        stroke: #fff;
        stroke-width: .84px;
      }

      .cls-10, .cls-11, .cls-12 {
        stroke-miterlimit: 10;
      }

      .cls-13 {
        fill: url(#linear-gradient-70);
      }

      .cls-14 {
        fill: url(#linear-gradient-60);
      }

      .cls-11, .cls-12 {
        stroke: #c14629;
      }

      .cls-11, .cls-12, .cls-15 {
        fill: #c14629;
      }

      .cls-16 {
        fill: url(#linear-gradient-2);
      }

      .cls-17 {
        fill: url(#linear-gradient-64);
      }

      .cls-18 {
        fill: url(#linear-gradient-56);
      }

      .cls-19 {
        fill: url(#linear-gradient-43);
      }

      .cls-20 {
        fill: url(#linear-gradient-25);
      }

      .cls-21 {
        fill: url(#linear-gradient-10);
      }

      .cls-22 {
        fill: url(#linear-gradient-12);
      }

      .cls-23 {
        fill: url(#linear-gradient-40);
      }

      .cls-24 {
        fill: url(#linear-gradient-27);
      }

      .cls-25 {
        fill: url(#linear-gradient-68);
      }

      .cls-26 {
        fill: url(#linear-gradient-37);
      }

      .cls-27 {
        fill: url(#linear-gradient-75);
      }

      .cls-28 {
        fill: url(#linear-gradient-55);
      }

      .cls-29 {
        fill: url(#linear-gradient-39);
      }

      .cls-30 {
        fill: #252429;
      }

      .cls-31 {
        fill: url(#linear-gradient-52);
      }

      .cls-32 {
        fill: url(#linear-gradient-58);
      }

      .cls-33 {
        fill: url(#linear-gradient-47);
      }

      .cls-34 {
        fill: url(#linear-gradient-26);
      }

      .cls-35 {
        fill: #253747;
      }

      .cls-36 {
        fill: url(#linear-gradient-74);
      }

      .cls-37 {
        fill: url(#linear-gradient-72);
      }

      .cls-38 {
        fill: url(#linear-gradient-4);
      }

      .cls-39 {
        fill: #39000e;
      }

      .cls-40 {
        fill: #60001a;
      }

      .cls-41 {
        fill: url(#linear-gradient-35);
      }

      .cls-42 {
        fill: url(#linear-gradient-30);
      }

      .cls-43 {
        fill: url(#linear-gradient-76);
      }

      .cls-44 {
        fill: url(#radial-gradient);
      }

      .cls-45 {
        fill: url(#radial-gradient-3);
      }

      .cls-46 {
        fill: #242529;
      }

      .cls-47 {
        fill: url(#linear-gradient-73);
      }

      .cls-48 {
        fill: url(#linear-gradient-71);
      }

      .cls-49 {
        fill: url(#linear-gradient-44);
      }

      .cls-50 {
        fill: url(#linear-gradient-49);
      }

      .cls-51 {
        fill: url(#linear-gradient-3);
      }

      .cls-52 {
        fill: url(#linear-gradient-34);
      }

      .cls-53 {
        fill: url(#linear-gradient-5);
      }

      .cls-54 {
        fill: url(#linear-gradient-38);
      }

      .cls-55 {
        fill: url(#linear-gradient-22);
      }

      .cls-56 {
        fill: url(#linear-gradient-24);
      }

      .cls-57 {
        fill: url(#linear-gradient-54);
      }

      .cls-58 {
        fill: url(#linear-gradient-33);
      }

      .cls-59 {
        fill: url(#linear-gradient-79);
      }

      .cls-60 {
        fill: url(#linear-gradient-78);
      }

      .cls-61 {
        fill: url(#linear-gradient-51);
      }

      .cls-62 {
        fill: url(#linear-gradient-8);
      }

      .cls-63 {
        fill: url(#linear-gradient-66);
      }

      .cls-64 {
        fill: url(#linear-gradient-57);
      }

      .cls-65 {
        fill: url(#linear-gradient-77);
      }

      .cls-66 {
        fill: url(#radial-gradient-2);
      }

      .cls-67 {
        fill: url(#linear-gradient-14);
      }

      .cls-68 {
        fill: url(#linear-gradient-62);
      }

      .cls-12 {
        stroke-width: 1.02px;
      }

      .cls-69 {
        fill: url(#linear-gradient-29);
      }

      .cls-70 {
        fill: url(#linear-gradient-20);
      }

      .cls-71 {
        fill: url(#radial-gradient-4);
      }

      .cls-72 {
        fill: url(#linear-gradient-67);
      }

      .cls-73 {
        fill: url(#linear-gradient-17);
      }

      .cls-74 {
        fill: url(#linear-gradient-50);
      }

      .cls-75 {
        fill: url(#linear-gradient-7);
      }

      .cls-76 {
        fill: #bc702a;
      }

      .cls-77 {
        fill: url(#linear-gradient-9);
      }

      .cls-78 {
        fill: #1a005b;
      }

      .cls-79 {
        fill: url(#linear-gradient-59);
      }

      .cls-80 {
        fill: url(#linear-gradient-11);
      }

      .cls-81 {
        fill: url(#linear-gradient-19);
      }

      .cls-82 {
        fill: url(#linear-gradient-80);
      }

      .cls-83 {
        fill: url(#linear-gradient-6);
      }

      .cls-84 {
        fill: #1b00bb;
      }

      .cls-85 {
        fill: url(#linear-gradient-36);
      }

      .cls-86 {
        fill: url(#linear-gradient-21);
      }

      .cls-87 {
        fill: url(#linear-gradient-45);
      }

      .cls-88 {
        fill: #19161b;
      }

      .cls-89 {
        fill: url(#linear-gradient-48);
      }

      .cls-90 {
        fill: url(#linear-gradient-32);
      }

      .cls-91 {
        fill: url(#linear-gradient-41);
      }

      .cls-92 {
        fill: url(#linear-gradient-16);
      }

      .cls-93 {
        fill: #1a1820;
      }

      .cls-94 {
        fill: url(#linear-gradient);
      }

      .cls-95 {
        fill: #8b18ff;
      }

      .cls-96 {
        fill: url(#linear-gradient-23);
      }

      .cls-97 {
        fill: url(#linear-gradient-31);
      }

      .cls-98 {
        fill: url(#linear-gradient-63);
      }

      .cls-99 {
        fill: #00a834;
      }

      .cls-100 {
        fill: url(#linear-gradient-18);
      }
    </style>
    <linearGradient id="linear-gradient" x1="154.47" y1="188.47" x2="154.47" y2="275.78" gradientUnits="userSpaceOnUse">
      <stop offset="0" stop-color="#473445"/>
      <stop offset="1" stop-color="#000"/>
    </linearGradient>
    <linearGradient id="linear-gradient-2" x1="263.12" y1="188.47" x2="263.12" xlink:href="#linear-gradient"/>
    <linearGradient id="linear-gradient-3" x1="376.7" y1="188.47" x2="376.7" xlink:href="#linear-gradient"/>
    <linearGradient id="linear-gradient-4" x1="492.76" y1="188.47" x2="492.76" xlink:href="#linear-gradient"/>
    <linearGradient id="linear-gradient-5" x1="606.34" y1="188.47" x2="606.34" xlink:href="#linear-gradient"/>
    <linearGradient id="linear-gradient-6" x1="719.93" y1="188.47" x2="719.93" xlink:href="#linear-gradient"/>
    <linearGradient id="linear-gradient-7" x1="833.51" y1="188.47" x2="833.51" xlink:href="#linear-gradient"/>
    <linearGradient id="linear-gradient-8" x1="952.03" y1="188.47" x2="952.03" xlink:href="#linear-gradient"/>
    <linearGradient id="linear-gradient-9" x1="1060.68" y1="188.47" x2="1060.68" xlink:href="#linear-gradient"/>
    <linearGradient id="linear-gradient-10" x1="1174.26" y1="188.47" x2="1174.26" xlink:href="#linear-gradient"/>
    <linearGradient id="linear-gradient-11" x1="1287.84" y1="188.47" x2="1287.84" xlink:href="#linear-gradient"/>
    <linearGradient id="linear-gradient-12" x1="1398.96" y1="188.47" x2="1398.96" xlink:href="#linear-gradient"/>
    <linearGradient id="linear-gradient-13" x1="1517.48" y1="188.47" x2="1517.48" xlink:href="#linear-gradient"/>
    <linearGradient id="linear-gradient-14" x1="1626.13" y1="188.47" x2="1626.13" xlink:href="#linear-gradient"/>
    <linearGradient id="linear-gradient-15" x1="1576.74" y1="260.07" x2="1576.74" y2="347.38" xlink:href="#linear-gradient"/>
    <linearGradient id="linear-gradient-16" x1="1460.69" y1="260.07" x2="1460.69" y2="347.38" xlink:href="#linear-gradient"/>
    <linearGradient id="linear-gradient-17" x1="1349.58" y1="260.07" x2="1349.58" y2="347.38" xlink:href="#linear-gradient"/>
    <linearGradient id="linear-gradient-18" x1="1238.46" y1="267.48" x2="1238.46" y2="354.79" xlink:href="#linear-gradient"/>
    <linearGradient id="linear-gradient-19" x1="1115" y1="267.48" x2="1115" y2="354.79" xlink:href="#linear-gradient"/>
    <linearGradient id="linear-gradient-20" x1="1001.42" y1="267.48" x2="1001.42" y2="354.79" xlink:href="#linear-gradient"/>
    <linearGradient id="linear-gradient-21" x1="890.3" y1="267.48" x2="890.3" y2="354.79" xlink:href="#linear-gradient"/>
    <linearGradient id="linear-gradient-22" x1="1660.7" y1="346.5" x2="1660.7" y2="433.81" xlink:href="#linear-gradient"/>
    <linearGradient id="linear-gradient-23" x1="1544.64" y1="346.5" x2="1544.64" y2="433.81" xlink:href="#linear-gradient"/>
    <linearGradient id="linear-gradient-24" x1="1433.53" y1="346.5" x2="1433.53" y2="433.81" xlink:href="#linear-gradient"/>
    <linearGradient id="linear-gradient-25" x1="1322.41" y1="353.9" x2="1322.41" y2="441.21" xlink:href="#linear-gradient"/>
    <linearGradient id="linear-gradient-26" x1="1198.95" y1="353.9" x2="1198.95" y2="441.21" xlink:href="#linear-gradient"/>
    <linearGradient id="linear-gradient-27" x1="1085.37" y1="353.9" x2="1085.37" y2="441.21" xlink:href="#linear-gradient"/>
    <linearGradient id="linear-gradient-28" x1="974.25" y1="353.9" x2="974.25" y2="441.21" xlink:href="#linear-gradient"/>
    <linearGradient id="linear-gradient-29" x1="845.86" y1="351.43" x2="845.86" y2="438.74" xlink:href="#linear-gradient"/>
    <linearGradient id="linear-gradient-30" x1="729.8" y1="351.43" x2="729.8" y2="438.74" xlink:href="#linear-gradient"/>
    <linearGradient id="linear-gradient-31" x1="618.69" y1="351.43" x2="618.69" y2="438.74" xlink:href="#linear-gradient"/>
    <linearGradient id="linear-gradient-32" x1="507.57" y1="358.84" x2="507.57" y2="446.15" xlink:href="#linear-gradient"/>
    <linearGradient id="linear-gradient-33" x1="384.11" y1="358.84" x2="384.11" y2="446.15" xlink:href="#linear-gradient"/>
    <linearGradient id="linear-gradient-34" x1="270.53" y1="358.84" x2="270.53" y2="446.15" xlink:href="#linear-gradient"/>
    <linearGradient id="linear-gradient-35" x1="159.41" y1="358.84" x2="159.41" y2="446.15" xlink:href="#linear-gradient"/>
    <linearGradient id="linear-gradient-36" x1="850.79" y1="432.92" x2="850.79" y2="520.23" xlink:href="#linear-gradient"/>
    <linearGradient id="linear-gradient-37" x1="734.74" y1="432.92" x2="734.74" y2="520.23" xlink:href="#linear-gradient"/>
    <linearGradient id="linear-gradient-38" x1="623.63" y1="432.92" x2="623.63" y2="520.23" xlink:href="#linear-gradient"/>
    <linearGradient id="linear-gradient-39" x1="512.51" y1="440.33" x2="512.51" y2="527.64" xlink:href="#linear-gradient"/>
    <linearGradient id="linear-gradient-40" x1="389.05" y1="440.33" x2="389.05" y2="527.64" xlink:href="#linear-gradient"/>
    <linearGradient id="linear-gradient-41" x1="275.47" y1="440.33" x2="275.47" y2="527.64" xlink:href="#linear-gradient"/>
    <linearGradient id="linear-gradient-42" x1="164.35" y1="440.33" x2="164.35" y2="527.64" xlink:href="#linear-gradient"/>
    <linearGradient id="linear-gradient-43" x1="1643.41" y1="427.98" x2="1643.41" y2="515.29" xlink:href="#linear-gradient"/>
    <linearGradient id="linear-gradient-44" x1="1527.36" y1="427.98" x2="1527.36" y2="515.29" xlink:href="#linear-gradient"/>
    <linearGradient id="linear-gradient-45" x1="1416.24" y1="427.98" x2="1416.24" y2="515.29" xlink:href="#linear-gradient"/>
    <linearGradient id="linear-gradient-46" x1="1305.13" y1="435.39" x2="1305.13" y2="522.7" xlink:href="#linear-gradient"/>
    <linearGradient id="linear-gradient-47" x1="1181.67" y1="435.39" x2="1181.67" y2="522.7" xlink:href="#linear-gradient"/>
    <linearGradient id="linear-gradient-48" x1="1068.08" y1="435.39" x2="1068.08" y2="522.7" xlink:href="#linear-gradient"/>
    <linearGradient id="linear-gradient-49" x1="956.97" y1="435.39" x2="956.97" y2="522.7" xlink:href="#linear-gradient"/>
    <linearGradient id="linear-gradient-50" x1="1554.52" y1="526.75" x2="1554.52" y2="614.06" xlink:href="#linear-gradient"/>
    <linearGradient id="linear-gradient-51" x1="1438.47" y1="526.75" x2="1438.47" y2="614.06" xlink:href="#linear-gradient"/>
    <linearGradient id="linear-gradient-52" x1="1305.13" y1="526.75" x2="1305.13" y2="614.06" xlink:href="#linear-gradient"/>
    <linearGradient id="linear-gradient-53" x1="1189.08" y1="524.28" x2="1189.08" y2="611.59" xlink:href="#linear-gradient"/>
    <linearGradient id="linear-gradient-54" x1="1068.08" y1="524.28" x2="1068.08" y2="611.59" xlink:href="#linear-gradient"/>
    <linearGradient id="linear-gradient-55" x1="956.97" y1="526.75" x2="956.97" y2="614.06" xlink:href="#linear-gradient"/>
    <linearGradient id="linear-gradient-56" x1="831.04" y1="526.75" x2="831.04" y2="614.06" xlink:href="#linear-gradient"/>
    <linearGradient id="linear-gradient-57" x1="1142.16" y1="615.64" x2="1142.16" y2="702.95" xlink:href="#linear-gradient"/>
    <linearGradient id="linear-gradient-58" x1="1255.75" y1="615.64" x2="1255.75" y2="702.95" xlink:href="#linear-gradient"/>
    <linearGradient id="linear-gradient-59" x1="1371.8" y1="618.11" x2="1371.8" y2="705.42" xlink:href="#linear-gradient"/>
    <linearGradient id="linear-gradient-60" x1="1505.14" y1="623.05" x2="1505.14" y2="710.36" xlink:href="#linear-gradient"/>
    <linearGradient id="linear-gradient-61" x1="1626.13" y1="623.05" x2="1626.13" y2="710.36" xlink:href="#linear-gradient"/>
    <linearGradient id="linear-gradient-62" x1="719.93" y1="524.28" x2="719.93" y2="611.59" xlink:href="#linear-gradient"/>
    <linearGradient id="linear-gradient-63" x1="591.53" y1="531.69" x2="591.53" y2="619" xlink:href="#linear-gradient"/>
    <linearGradient id="linear-gradient-64" x1="475.47" y1="531.69" x2="475.47" y2="619" xlink:href="#linear-gradient"/>
    <linearGradient id="linear-gradient-65" x1="352.01" y1="531.69" x2="352.01" y2="619" xlink:href="#linear-gradient"/>
    <linearGradient id="linear-gradient-66" x1="226.08" y1="539.09" x2="226.08" y2="626.4" xlink:href="#linear-gradient"/>
    <linearGradient id="linear-gradient-67" x1="1018.7" y1="618.11" x2="1018.7" y2="705.42" xlink:href="#linear-gradient"/>
    <linearGradient id="linear-gradient-68" x1="902.65" y1="623.05" x2="902.65" y2="710.36" xlink:href="#linear-gradient"/>
    <linearGradient id="linear-gradient-69" x1="764.37" y1="618.11" x2="764.37" y2="705.42" xlink:href="#linear-gradient"/>
    <linearGradient id="linear-gradient-70" x1="640.91" y1="623.05" x2="640.91" y2="710.36" xlink:href="#linear-gradient"/>
    <linearGradient id="linear-gradient-71" x1="524.86" y1="625.52" x2="524.86" y2="712.83" xlink:href="#linear-gradient"/>
    <linearGradient id="linear-gradient-72" x1="401.4" y1="625.52" x2="401.4" y2="712.83" xlink:href="#linear-gradient"/>
    <linearGradient id="linear-gradient-73" x1="275.47" y1="625.52" x2="275.47" y2="712.83" xlink:href="#linear-gradient"/>
    <linearGradient id="linear-gradient-74" x1="154.47" y1="625.52" x2="154.47" y2="712.83" xlink:href="#linear-gradient"/>
    <linearGradient id="linear-gradient-75" x1="769.31" y1="260.07" x2="769.31" y2="347.38" xlink:href="#linear-gradient"/>
    <linearGradient id="linear-gradient-76" x1="663.13" y1="267.48" x2="663.13" y2="354.79" xlink:href="#linear-gradient"/>
    <linearGradient id="linear-gradient-77" x1="542.14" y1="267.48" x2="542.14" y2="354.79" xlink:href="#linear-gradient"/>
    <linearGradient id="linear-gradient-78" x1="426.09" y1="267.48" x2="426.09" y2="354.79" xlink:href="#linear-gradient"/>
    <linearGradient id="linear-gradient-79" x1="312.5" y1="267.48" x2="312.5" y2="354.79" xlink:href="#linear-gradient"/>
    <linearGradient id="linear-gradient-80" x1="191.51" y1="267.48" x2="191.51" y2="354.79" xlink:href="#linear-gradient"/>
    <radialGradient id="radial-gradient" cx="1357.56" cy="27.29" fx="1357.56" fy="27.29" r="26.43" gradientUnits="userSpaceOnUse">
      <stop offset="0" stop-color="#fff"/>
      <stop offset=".02" stop-color="#fefff8"/>
      <stop offset=".29" stop-color="#f7ffb0"/>
      <stop offset=".54" stop-color="#f2ff76"/>
      <stop offset=".74" stop-color="#efff4c"/>
      <stop offset=".9" stop-color="#ecff33"/>
      <stop offset="1" stop-color="#ecff2a"/>
    </radialGradient>
    <radialGradient id="radial-gradient-2" cx="574.56" cy="28.29" fx="574.56" fy="28.29" r="26.43" xlink:href="#radial-gradient"/>
    <radialGradient id="radial-gradient-3" cx="234.56" fx="234.56" r="26.43" xlink:href="#radial-gradient"/>
    <radialGradient id="radial-gradient-4" cx="1693.56" cy="28.29" fx="1693.56" fy="28.29" xlink:href="#radial-gradient"/>
  </defs>
  <rect class="cls-88" width="1924" height="103.5"/>
  <polygon class="cls-30" points="3 94.5 1922.95 94.5 1931 317.36 1861.57 170.58 1579.22 170.58 1612.11 281.36 1670.92 488.08 1670.92 543.98 239.98 539.5 3 548.92 3 94.5"/>
  <g id="Seats-2" data-name="Seats">
    <polygon class="cls-46" points="65 730.11 99.57 137.5 1802.71 137.5 1970 743.69 65 730.11"/>
    <path class="cls-94" d="M104.51,275.78l9.88-74.08s27.16-17.28,54.32-12.35c27.16,4.94,29.63,4.94,34.57,12.35,4.94,7.41-7.41,69.14-7.41,69.14l-91.36,4.94Z"/>
    <path class="cls-16" d="M213.15,275.78l9.88-74.08s27.16-17.28,54.32-12.35c27.16,4.94,29.63,4.94,34.57,12.35s-7.41,69.14-7.41,69.14l-91.36,4.94Z"/>
    <path class="cls-51" d="M326.74,275.78l9.88-74.08s27.16-17.28,54.32-12.35c27.16,4.94,29.63,4.94,34.57,12.35,4.94,7.41-7.41,69.14-7.41,69.14l-91.36,4.94Z"/>
    <path class="cls-38" d="M442.79,275.78l9.88-74.08s27.16-17.28,54.32-12.35c27.16,4.94,29.63,4.94,34.57,12.35,4.94,7.41-7.41,69.14-7.41,69.14l-91.36,4.94Z"/>
    <path class="cls-53" d="M556.37,275.78l9.88-74.08s27.16-17.28,54.32-12.35c27.16,4.94,29.63,4.94,34.57,12.35,4.94,7.41-7.41,69.14-7.41,69.14l-91.36,4.94Z"/>
    <path class="cls-83" d="M669.96,275.78l9.88-74.08s27.16-17.28,54.32-12.35c27.16,4.94,29.63,4.94,34.57,12.35,4.94,7.41-7.41,69.14-7.41,69.14l-91.36,4.94Z"/>
    <path class="cls-75" d="M783.54,275.78l9.88-74.08s27.16-17.28,54.32-12.35c27.16,4.94,29.63,4.94,34.57,12.35s-7.41,69.14-7.41,69.14l-91.36,4.94Z"/>
    <path class="cls-62" d="M902.06,275.78l9.88-74.08s27.16-17.28,54.32-12.35c27.16,4.94,29.63,4.94,34.57,12.35,4.94,7.41-7.41,69.14-7.41,69.14l-91.36,4.94Z"/>
    <path class="cls-77" d="M1010.71,275.78l9.88-74.08s27.16-17.28,54.32-12.35c27.16,4.94,29.63,4.94,34.57,12.35s-7.41,69.14-7.41,69.14l-91.36,4.94Z"/>
    <path class="cls-21" d="M1124.29,275.78l9.88-74.08s27.16-17.28,54.32-12.35c27.16,4.94,29.63,4.94,34.57,12.35,4.94,7.41-7.41,69.14-7.41,69.14l-91.36,4.94Z"/>
    <path class="cls-80" d="M1237.88,275.78l9.88-74.08s27.16-17.28,54.32-12.35c27.16,4.94,29.63,4.94,34.57,12.35,4.94,7.41-7.41,69.14-7.41,69.14l-91.36,4.94Z"/>
    <path class="cls-22" d="M1348.99,275.78l9.88-74.08s27.16-17.28,54.32-12.35c27.16,4.94,29.63,4.94,34.57,12.35,4.94,7.41-7.41,69.14-7.41,69.14l-91.36,4.94Z"/>
    <path class="cls-3" d="M1467.51,275.78l9.88-74.08s27.16-17.28,54.32-12.35c27.16,4.94,29.63,4.94,34.57,12.35,4.94,7.41-7.41,69.14-7.41,69.14l-91.36,4.94Z"/>
    <path class="cls-67" d="M1576.16,275.78l9.88-74.08s27.16-17.28,54.32-12.35c27.16,4.94,29.63,4.94,34.57,12.35s-7.41,69.14-7.41,69.14l-91.36,4.94Z"/>
    <path class="cls-2" d="M1526.78,347.38l9.88-74.08s27.16-17.28,54.32-12.35c27.16,4.94,29.63,4.94,34.57,12.35s-7.41,69.14-7.41,69.14l-91.36,4.94Z"/>
    <path class="cls-92" d="M1410.72,347.38l9.88-74.08s27.16-17.28,54.32-12.35c27.16,4.94,29.63,4.94,34.57,12.35s-7.41,69.14-7.41,69.14l-91.36,4.94Z"/>
    <path class="cls-73" d="M1299.61,347.38l9.88-74.08s27.16-17.28,54.32-12.35c27.16,4.94,29.63,4.94,34.57,12.35s-7.41,69.14-7.41,69.14l-91.36,4.94Z"/>
    <path class="cls-100" d="M1188.49,354.79l9.88-74.08s27.16-17.28,54.32-12.35c27.16,4.94,29.63,4.94,34.57,12.35s-7.41,69.14-7.41,69.14l-91.36,4.94Z"/>
    <path class="cls-81" d="M1065.03,354.79l9.88-74.08s27.16-17.28,54.32-12.35c27.16,4.94,29.63,4.94,34.57,12.35s-7.41,69.14-7.41,69.14l-91.36,4.94Z"/>
    <path class="cls-70" d="M951.45,354.79l9.88-74.08s27.16-17.28,54.32-12.35c27.16,4.94,29.63,4.94,34.57,12.35,4.94,7.41-7.41,69.14-7.41,69.14l-91.36,4.94Z"/>
    <path class="cls-86" d="M840.33,354.79l9.88-74.08s27.16-17.28,54.32-12.35,29.63,4.94,34.57,12.35c4.94,7.41-7.41,69.14-7.41,69.14l-91.36,4.94Z"/>
    <path class="cls-55" d="M1610.73,433.81l9.88-74.08s27.16-17.28,54.32-12.35c27.16,4.94,29.63,4.94,34.57,12.35s-7.41,69.14-7.41,69.14l-91.36,4.94Z"/>
    <path class="cls-96" d="M1494.68,433.81l9.88-74.08s27.16-17.28,54.32-12.35c27.16,4.94,29.63,4.94,34.57,12.35s-7.41,69.14-7.41,69.14l-91.36,4.94Z"/>
    <path class="cls-56" d="M1383.56,433.81l9.88-74.08s27.16-17.28,54.32-12.35c27.16,4.94,29.63,4.94,34.57,12.35s-7.41,69.14-7.41,69.14l-91.36,4.94Z"/>
    <path class="cls-20" d="M1272.45,441.21l9.88-74.08s27.16-17.28,54.32-12.35c27.16,4.94,29.63,4.94,34.57,12.35,4.94,7.41-7.41,69.14-7.41,69.14l-91.36,4.94Z"/>
    <path class="cls-34" d="M1148.99,441.21l9.88-74.08s27.16-17.28,54.32-12.35c27.16,4.94,29.63,4.94,34.57,12.35,4.94,7.41-7.41,69.14-7.41,69.14l-91.36,4.94Z"/>
    <path class="cls-24" d="M1035.4,441.21l9.88-74.08s27.16-17.28,54.32-12.35,29.63,4.94,34.57,12.35c4.94,7.41-7.41,69.14-7.41,69.14l-91.36,4.94Z"/>
    <path class="cls-4" d="M924.29,441.21l9.88-74.08s27.16-17.28,54.32-12.35c27.16,4.94,29.63,4.94,34.57,12.35,4.94,7.41-7.41,69.14-7.41,69.14l-91.36,4.94Z"/>
    <path class="cls-69" d="M795.89,438.74l9.88-74.08s27.16-17.28,54.32-12.35c27.16,4.94,29.63,4.94,34.57,12.35s-7.41,69.14-7.41,69.14l-91.36,4.94Z"/>
    <path class="cls-42" d="M679.83,438.74l9.88-74.08s27.16-17.28,54.32-12.35c27.16,4.94,29.63,4.94,34.57,12.35s-7.41,69.14-7.41,69.14l-91.36,4.94Z"/>
    <path class="cls-97" d="M568.72,438.74l9.88-74.08s27.16-17.28,54.32-12.35c27.16,4.94,29.63,4.94,34.57,12.35,4.94,7.41-7.41,69.14-7.41,69.14l-91.36,4.94Z"/>
    <path class="cls-90" d="M457.61,446.15l9.88-74.08s27.16-17.28,54.32-12.35c27.16,4.94,29.63,4.94,34.57,12.35,4.94,7.41-7.41,69.14-7.41,69.14l-91.36,4.94Z"/>
    <path class="cls-58" d="M334.14,446.15l9.88-74.08s27.16-17.28,54.32-12.35c27.16,4.94,29.63,4.94,34.57,12.35s-7.41,69.14-7.41,69.14l-91.36,4.94Z"/>
    <path class="cls-52" d="M220.56,446.15l9.88-74.08s27.16-17.28,54.32-12.35c27.16,4.94,29.63,4.94,34.57,12.35s-7.41,69.14-7.41,69.14l-91.36,4.94Z"/>
    <path class="cls-41" d="M109.45,446.15l9.88-74.08s27.16-17.28,54.32-12.35c27.16,4.94,29.63,4.94,34.57,12.35s-7.41,69.14-7.41,69.14l-91.36,4.94Z"/>
    <path class="cls-85" d="M800.83,520.23l9.88-74.08s27.16-17.28,54.32-12.35c27.16,4.94,29.63,4.94,34.57,12.35,4.94,7.41-7.41,69.14-7.41,69.14l-91.36,4.94Z"/>
    <path class="cls-26" d="M684.77,520.23l9.88-74.08s27.16-17.28,54.32-12.35c27.16,4.94,29.63,4.94,34.57,12.35,4.94,7.41-7.41,69.14-7.41,69.14l-91.36,4.94Z"/>
    <path class="cls-54" d="M573.66,520.23l9.88-74.08s27.16-17.28,54.32-12.35c27.16,4.94,29.63,4.94,34.57,12.35s-7.41,69.14-7.41,69.14l-91.36,4.94Z"/>
    <path class="cls-29" d="M462.54,527.64l9.88-74.08s27.16-17.28,54.32-12.35c27.16,4.94,29.63,4.94,34.57,12.35,4.94,7.41-7.41,69.14-7.41,69.14l-91.36,4.94Z"/>
    <path class="cls-23" d="M339.08,527.64l9.88-74.08s27.16-17.28,54.32-12.35,29.63,4.94,34.57,12.35c4.94,7.41-7.41,69.14-7.41,69.14l-91.36,4.94Z"/>
    <path class="cls-91" d="M225.5,527.64l9.88-74.08s27.16-17.28,54.32-12.35,29.63,4.94,34.57,12.35c4.94,7.41-7.41,69.14-7.41,69.14l-91.36,4.94Z"/>
    <path class="cls-8" d="M114.38,527.64l9.88-74.08s27.16-17.28,54.32-12.35,29.63,4.94,34.57,12.35c4.94,7.41-7.41,69.14-7.41,69.14l-91.36,4.94Z"/>
    <path class="cls-19" d="M1593.44,515.29l9.88-74.08s27.16-17.28,54.32-12.35c27.16,4.94,29.63,4.94,34.57,12.35,4.94,7.41-7.41,69.14-7.41,69.14l-91.36,4.94Z"/>
    <path class="cls-49" d="M1477.39,515.29l9.88-74.08s27.16-17.28,54.32-12.35c27.16,4.94,29.63,4.94,34.57,12.35,4.94,7.41-7.41,69.14-7.41,69.14l-91.36,4.94Z"/>
    <path class="cls-87" d="M1366.28,515.29l9.88-74.08s27.16-17.28,54.32-12.35c27.16,4.94,29.63,4.94,34.57,12.35s-7.41,69.14-7.41,69.14l-91.36,4.94Z"/>
    <path class="cls-9" d="M1255.16,522.7l9.88-74.08s27.16-17.28,54.32-12.35c27.16,4.94,29.63,4.94,34.57,12.35,4.94,7.41-7.41,69.14-7.41,69.14l-91.36,4.94Z"/>
    <path class="cls-33" d="M1131.7,522.7l9.88-74.08s27.16-17.28,54.32-12.35c27.16,4.94,29.63,4.94,34.57,12.35,4.94,7.41-7.41,69.14-7.41,69.14l-91.36,4.94Z"/>
    <path class="cls-89" d="M1018.12,522.7l9.88-74.08s27.16-17.28,54.32-12.35c27.16,4.94,29.63,4.94,34.57,12.35s-7.41,69.14-7.41,69.14l-91.36,4.94Z"/>
    <path class="cls-50" d="M907,522.7l9.88-74.08s27.16-17.28,54.32-12.35c27.16,4.94,29.63,4.94,34.57,12.35,4.94,7.41-7.41,69.14-7.41,69.14l-91.36,4.94Z"/>
    <path class="cls-74" d="M1504.55,614.06l9.88-74.08s27.16-17.28,54.32-12.35c27.16,4.94,29.63,4.94,34.57,12.35,4.94,7.41-7.41,69.14-7.41,69.14l-91.36,4.94Z"/>
    <path class="cls-61" d="M1388.5,614.06l9.88-74.08s27.16-17.28,54.32-12.35c27.16,4.94,29.63,4.94,34.57,12.35,4.94,7.41-7.41,69.14-7.41,69.14l-91.36,4.94Z"/>
    <path class="cls-31" d="M1255.16,614.06l9.88-74.08s27.16-17.28,54.32-12.35c27.16,4.94,29.63,4.94,34.57,12.35,4.94,7.41-7.41,69.14-7.41,69.14l-91.36,4.94Z"/>
    <path class="cls-7" d="M1139.11,611.59l9.88-74.08s27.16-17.28,54.32-12.35c27.16,4.94,29.63,4.94,34.57,12.35,4.94,7.41-7.41,69.14-7.41,69.14l-91.36,4.94Z"/>
    <path class="cls-57" d="M1018.12,611.59l9.88-74.08s27.16-17.28,54.32-12.35c27.16,4.94,29.63,4.94,34.57,12.35,4.94,7.41-7.41,69.14-7.41,69.14l-91.36,4.94Z"/>
    <path class="cls-28" d="M907,614.06l9.88-74.08s27.16-17.28,54.32-12.35c27.16,4.94,29.63,4.94,34.57,12.35,4.94,7.41-7.41,69.14-7.41,69.14l-91.36,4.94Z"/>
    <path class="cls-18" d="M781.07,614.06l9.88-74.08s27.16-17.28,54.32-12.35c27.16,4.94,29.63,4.94,34.57,12.35,4.94,7.41-7.41,69.14-7.41,69.14l-91.36,4.94Z"/>
    <path class="cls-64" d="M1092.19,702.95l9.88-74.08s27.16-17.28,54.32-12.35c27.16,4.94,29.63,4.94,34.57,12.35s-7.41,69.14-7.41,69.14l-91.36,4.94Z"/>
    <path class="cls-32" d="M1205.78,702.95l9.88-74.08s27.16-17.28,54.32-12.35c27.16,4.94,29.63,4.94,34.57,12.35,4.94,7.41-7.41,69.14-7.41,69.14l-91.36,4.94Z"/>
    <path class="cls-79" d="M1321.83,705.42l9.88-74.08s27.16-17.28,54.32-12.35c27.16,4.94,29.63,4.94,34.57,12.35,4.94,7.41-7.41,69.14-7.41,69.14l-91.36,4.94Z"/>
    <path class="cls-14" d="M1455.17,710.36l9.88-74.08s27.16-17.28,54.32-12.35c27.16,4.94,29.63,4.94,34.57,12.35s-7.41,69.14-7.41,69.14l-91.36,4.94Z"/>
    <path class="cls-1" d="M1576.16,710.36l9.88-74.08s27.16-17.28,54.32-12.35c27.16,4.94,29.63,4.94,34.57,12.35,4.94,7.41-7.41,69.14-7.41,69.14l-91.36,4.94Z"/>
    <path class="cls-68" d="M669.96,611.59l9.88-74.08s27.16-17.28,54.32-12.35c27.16,4.94,29.63,4.94,34.57,12.35,4.94,7.41-7.41,69.14-7.41,69.14l-91.36,4.94Z"/>
    <path class="cls-98" d="M541.56,619l9.88-74.08s27.16-17.28,54.32-12.35c27.16,4.94,29.63,4.94,34.57,12.35,4.94,7.41-7.41,69.14-7.41,69.14l-91.36,4.94Z"/>
    <path class="cls-17" d="M425.51,619l9.88-74.08s27.16-17.28,54.32-12.35c27.16,4.94,29.63,4.94,34.57,12.35,4.94,7.41-7.41,69.14-7.41,69.14l-91.36,4.94Z"/>
    <path class="cls-5" d="M302.04,619l9.88-74.08s27.16-17.28,54.32-12.35c27.16,4.94,29.63,4.94,34.57,12.35s-7.41,69.14-7.41,69.14l-91.36,4.94Z"/>
    <path class="cls-63" d="M176.11,626.4l9.88-74.08s27.16-17.28,54.32-12.35,29.63,4.94,34.57,12.35-7.41,69.14-7.41,69.14l-91.36,4.94Z"/>
    <path class="cls-72" d="M968.73,705.42l9.88-74.08s27.16-17.28,54.32-12.35c27.16,4.94,29.63,4.94,34.57,12.35s-7.41,69.14-7.41,69.14l-91.36,4.94Z"/>
    <path class="cls-25" d="M852.68,710.36l9.88-74.08s27.16-17.28,54.32-12.35c27.16,4.94,29.63,4.94,34.57,12.35s-7.41,69.14-7.41,69.14l-91.36,4.94Z"/>
    <path class="cls-6" d="M714.4,705.42l9.88-74.08s27.16-17.28,54.32-12.35c27.16,4.94,29.63,4.94,34.57,12.35,4.94,7.41-7.41,69.14-7.41,69.14l-91.36,4.94Z"/>
    <path class="cls-13" d="M590.94,710.36l9.88-74.08s27.16-17.28,54.32-12.35c27.16,4.94,29.63,4.94,34.57,12.35s-7.41,69.14-7.41,69.14l-91.36,4.94Z"/>
    <path class="cls-48" d="M474.89,712.83l9.88-74.08s27.16-17.28,54.32-12.35c27.16,4.94,29.63,4.94,34.57,12.35,4.94,7.41-7.41,69.14-7.41,69.14l-91.36,4.94Z"/>
    <path class="cls-37" d="M351.43,712.83l9.88-74.08s27.16-17.28,54.32-12.35c27.16,4.94,29.63,4.94,34.57,12.35,4.94,7.41-7.41,69.14-7.41,69.14l-91.36,4.94Z"/>
    <path class="cls-47" d="M225.5,712.83l9.88-74.08s27.16-17.28,54.32-12.35c27.16,4.94,29.63,4.94,34.57,12.35,4.94,7.41-7.41,69.14-7.41,69.14l-91.36,4.94Z"/>
    <path class="cls-36" d="M104.51,712.83l9.88-74.08s27.16-17.28,54.32-12.35c27.16,4.94,29.63,4.94,34.57,12.35,4.94,7.41-7.41,69.14-7.41,69.14l-91.36,4.94Z"/>
    <path class="cls-27" d="M719.34,347.38l9.88-74.08s27.16-17.28,54.32-12.35c27.16,4.94,29.63,4.94,34.57,12.35,4.94,7.41-7.41,69.14-7.41,69.14l-91.36,4.94Z"/>
    <path class="cls-43" d="M613.17,354.79l9.88-74.08s27.16-17.28,54.32-12.35c27.16,4.94,29.63,4.94,34.57,12.35,4.94,7.41-7.41,69.14-7.41,69.14l-91.36,4.94Z"/>
    <path class="cls-65" d="M492.17,354.79l9.88-74.08s27.16-17.28,54.32-12.35c27.16,4.94,29.63,4.94,34.57,12.35s-7.41,69.14-7.41,69.14l-91.36,4.94Z"/>
    <path class="cls-60" d="M376.12,354.79l9.88-74.08s27.16-17.28,54.32-12.35c27.16,4.94,29.63,4.94,34.57,12.35,4.94,7.41-7.41,69.14-7.41,69.14l-91.36,4.94Z"/>
    <path class="cls-59" d="M262.54,354.79l9.88-74.08s27.16-17.28,54.32-12.35,29.63,4.94,34.57,12.35c4.94,7.41-7.41,69.14-7.41,69.14l-91.36,4.94Z"/>
    <path class="cls-82" d="M141.55,354.79l9.88-74.08s27.16-17.28,54.32-12.35c27.16,4.94,29.63,4.94,34.57,12.35,4.94,7.41-7.41,69.14-7.41,69.14l-91.36,4.94Z"/>
    <rect class="cls-93" x="1687.27" y="248.61" width="94.54" height="18.87"/>
    <rect class="cls-93" x="1687.27" y="310.35" width="94.54" height="18.87"/>
    <rect class="cls-93" x="1709.5" y="389.36" width="94.54" height="18.87"/>
    <rect class="cls-93" x="1719.37" y="431.34" width="94.54" height="18.87"/>
  </g>
  <rect class="cls-88" x="113" y="222.5" width="190" height="240"/>
  <polygon class="cls-12" points="3 304.47 83.08 170.58 372.08 170.58 278.99 488.08 235.61 474.84 320.43 193.93 105.45 193.93 3 409.93 3 304.47"/>
  <path class="cls-76" d="M5,529.5l119.5-67.5h110.11S90.5,631,5,678c.5-149,0-148.5,0-148.5Z"/>
  <polygon class="cls-30" points="114 221.5 124.5 462 5 529.5 5 409.93 101.5 199 310.79 199 304.5 222 114 221.5"/>
  <g id="Score_Board" data-name="Score Board">
    <polygon class="cls-15" points="752.34 14.57 769.04 193.93 1177.04 193.93 1201.79 14.57 752.34 14.57"/>
    <polygon class="cls-35" points="772.03 28.41 786.98 170.42 1153.73 170.58 1176.03 28.59 772.03 28.41"/>
    <rect class="cls-10" x="835.5" y="81" width="45" height="74"/>
    <rect class="cls-84" x="890.5" y="81" width="45" height="74"/>
    <rect class="cls-99" x="1010.5" y="81" width="45" height="74"/>
    <rect class="cls-40" x="968" y="94.5" width="9.05" height="9.5"/>
    <rect class="cls-39" x="968" y="129.5" width="9.05" height="9.5"/>
    <rect class="cls-78" x="835.5" y="40" width="271.5" height="25"/>
    <rect class="cls-95" x="1062.5" y="81" width="45" height="74"/>
  </g>
  <polygon class="cls-11" points="1921.5 567.93 1811.84 170.58 1862 170.58 1931 317.36 1921.5 567.93"/>
  <rect class="cls-44" x="1322.41" y="14.57" width="70.3" height="25.43"/>
  <rect class="cls-66" x="539.41" y="15.57" width="70.3" height="25.43"/>
  <rect class="cls-45" x="199.41" y="14.57" width="70.3" height="25.43"/>
  <rect class="cls-71" x="1658.41" y="15.57" width="70.3" height="25.43"/>
</svg>