<svg width="1017" height="971" viewBox="0 0 1017 971" fill="none" xmlns="http://www.w3.org/2000/svg">
<path d="M994.559 289.019C986.643 282.725 954.868 278.379 946.941 274.168C939.013 269.957 931.108 261.58 922.204 254.239C919.229 253.181 916.22 258.372 916.22 258.372C916.22 258.372 890.396 256.143 884.456 251.943C878.516 247.743 841.734 250.66 838.747 251.684C835.761 252.709 830.776 255.805 819.84 256.785C808.904 257.765 788.997 263.902 788.997 263.902L784.353 258.98C784.353 258.98 780.772 261.47 775.519 249.619C770.266 237.768 747.483 224.099 747.483 224.099C747.483 224.099 728.62 220.867 722.725 208.335C709.857 198.889 714.831 197.875 705.938 188.451C697.044 179.027 689.106 176.899 685.165 170.627C679.225 166.428 657.486 143.391 657.486 143.391C657.486 143.391 648.584 131.863 644.63 129.768C640.677 127.672 627.764 126.558 620.847 119.228C612.92 115.017 604.836 108.545 601.5 98.7251C598.163 88.9053 585.341 69.033 585.341 69.033C585.341 69.033 570.585 40.8278 569.608 37.6976C568.631 34.5675 567.676 27.2712 567.676 27.2712C567.676 27.2712 568.687 24.1523 566.688 26.2241C564.69 28.2959 565.656 33.5091 559.738 25.1433C559.738 25.1433 551.822 18.8492 550.867 11.553C549.912 4.25678 550.911 3.22088 549.923 2.17375C548.935 1.12661 545.96 0.0682466 545.949 2.15128C545.937 4.23431 548.902 7.37571 545.915 8.40038C542.929 9.42504 538.01 0.0233105 538.01 0.0233105C538.01 0.0233105 530.05 2.06141 537.955 10.4385C537.955 10.4385 534.946 15.6292 540.908 15.6629C546.87 15.6966 544.872 17.7684 545.86 18.8155C546.848 19.8627 565.645 35.5921 565.612 41.8412C565.578 48.0903 577.447 58.5729 577.425 62.739C577.403 66.905 591.192 89.897 591.192 89.897C591.192 89.897 590.182 93.016 582.277 84.6389C573.362 79.3808 571.385 77.2865 566.445 72.0508C561.504 66.8152 557.518 68.8757 552.578 63.6401C547.637 58.4044 535.768 47.9218 535.768 47.9218L534.769 48.9577L549.591 64.6647C549.591 64.6647 545.594 68.8083 541.62 68.7859C537.645 68.7634 541.598 72.9519 546.582 69.8555C551.567 66.759 557.507 70.9588 557.507 70.9588C557.507 70.9588 560.494 69.9341 564.446 74.1226L574.328 84.594C574.328 84.594 579.29 85.6636 581.267 87.7578C583.243 89.8521 595.09 104.501 595.09 104.501C595.09 104.501 584.132 109.647 585.12 110.694C585.109 112.777 586.086 115.907 590.071 113.846C594.057 111.786 596.067 107.631 601.007 112.867C605.948 118.102 608.912 121.244 612.876 123.349L628.73 131.771C628.73 131.771 637.628 132.905 640.632 136.005C654.853 150.719 681.077 184.436 648.504 150.631C646.508 148.557 644.518 152.691 645.506 153.738C646.495 154.786 649.459 157.927 649.437 162.093C651.402 166.27 643.442 168.308 633.516 166.169C623.59 164.03 617.64 161.913 614.664 160.855C611.689 159.797 611.689 159.797 609.701 159.785C607.714 159.774 607.703 161.857 609.69 161.868C611.678 161.88 616.64 162.949 616.629 165.032C616.618 167.115 612.632 169.176 612.632 169.176C612.632 169.176 612.621 171.259 615.608 170.234C618.594 169.21 619.605 166.091 626.544 169.255C633.483 172.418 640.444 171.416 640.444 171.416C640.444 171.416 653.367 170.448 657.342 170.47C657.342 170.47 664.303 169.468 667.268 172.609L685.054 191.458C685.054 191.458 691.993 194.622 696.934 199.857C701.874 205.093 701.863 207.176 701.863 207.176C701.863 207.176 707.792 213.459 715.708 219.753C723.624 226.047 734.538 229.233 732.518 235.471C730.497 241.709 724.535 241.675 724.524 243.758C724.513 245.841 727.488 246.9 731.474 244.839C735.46 242.779 741.444 238.646 748.372 243.893C755.3 249.14 764.182 260.647 764.182 260.647C764.182 260.647 771.099 267.977 770.089 271.096C769.079 274.215 748.162 283.471 743.188 284.484C738.214 285.498 717.286 296.836 712.312 297.85C707.338 298.863 676.496 305.98 672.521 305.957C668.547 305.935 656.645 301.701 651.726 292.3C645.808 283.934 635.938 271.379 633.018 259.906C630.098 248.432 629.22 226.555 629.232 224.472C629.243 222.389 625.39 199.453 622.425 196.311C619.461 193.17 612.577 179.591 609.613 176.45C606.648 173.308 596.767 162.837 595.768 163.873C594.769 164.909 593.78 163.862 591.771 168.016C584.821 166.936 580.857 164.83 574.895 164.796C568.933 164.763 565.98 159.538 562.993 160.563C560.007 161.588 558.997 164.706 558.997 164.706C558.997 164.706 543.076 168.783 535.149 164.572C527.221 160.361 518.383 140.521 519.383 139.485C520.382 138.45 522.391 134.295 519.416 133.236C516.44 132.178 519.416 133.236 517.417 135.308C515.419 137.38 504.539 127.944 504.539 127.944C504.539 127.944 496.589 127.9 500.542 132.088C504.494 136.277 515.375 145.712 515.375 145.712C515.375 145.712 522.303 150.959 524.246 159.302L526.189 167.646C526.189 167.646 518.217 171.767 517.207 174.886C516.197 178.005 518.162 182.182 519.161 181.146C520.161 180.11 523.158 177.002 528.132 175.989C533.106 174.976 566.891 175.167 568.878 175.178C570.865 175.189 579.814 174.198 589.728 178.42C599.643 182.643 601.641 180.571 607.537 193.103C613.432 205.635 619.35 214 618.273 229.618C617.197 245.235 623.059 264.016 625.024 268.193C626.99 272.37 627.967 275.5 627.933 281.75C627.9 287.999 625.913 287.987 629.843 296.342C633.774 304.697 633.774 304.697 634.762 305.744C635.75 306.791 619.862 304.618 607.006 293.088C593.105 290.927 582.247 277.325 574.309 275.197C566.37 273.069 548.484 272.968 548.484 272.968C548.484 272.968 546.508 270.874 543.522 271.898C540.535 272.923 531.575 275.997 520.662 272.811C509.748 269.624 483.879 275.727 483.879 275.727C483.879 275.727 462.019 275.604 446.153 269.265C430.288 262.926 416.376 262.847 404.419 269.029C392.462 275.211 377.529 280.334 370.579 279.253C363.629 278.172 362.663 272.959 356.668 279.175C350.673 285.39 326.869 276.923 315.955 273.737C305.041 270.55 291.152 266.306 291.152 266.306C291.152 266.306 288.155 269.413 290.131 271.508C292.107 273.602 319.885 282.091 319.885 282.091C319.885 282.091 340.725 287.417 342.701 289.511C344.677 291.605 347.653 292.664 349.64 292.675C351.628 292.686 355.602 292.709 350.606 297.888C345.61 303.068 341.591 311.377 328.646 316.512C315.701 321.646 310.705 326.826 299.791 323.64C294.784 330.902 280.806 343.322 280.806 343.322C280.806 343.322 282.771 347.499 296.738 337.162C310.716 324.743 318.643 328.954 324.627 324.822C330.611 320.689 333.575 323.831 341.569 315.543L365.55 290.682C365.55 290.682 377.474 290.749 389.42 286.651C401.366 282.552 412.335 275.323 419.285 276.404C428.234 275.413 450.073 279.703 462.951 287.066C475.83 294.43 448.063 283.857 434.063 300.443C422.073 312.874 421.107 307.661 415.123 311.793C409.138 315.925 399.213 313.786 398.203 316.905C397.192 320.024 397.159 326.273 405.131 322.152C413.102 318.031 421.051 318.076 422.04 319.123C423.028 320.17 426.947 330.608 421.962 333.704C416.977 336.801 403.088 332.556 403.088 332.556C403.088 332.556 398.081 339.818 404.043 339.852C410.005 339.886 414.002 335.742 421.918 342.036L429.867 342.081L432.865 338.973C432.865 338.973 425.926 335.81 430.988 318.132C436.05 300.454 449.951 302.616 455.913 302.65C461.864 304.766 468.847 299.598 482.792 293.428C496.736 287.257 531.487 292.661 535.462 292.684C539.436 292.706 558.332 289.688 574.187 298.11C590.041 306.532 600.922 315.968 614.822 318.13C628.722 320.291 620.74 326.495 611.813 323.32C602.887 320.145 601.866 325.347 596.881 328.444C591.896 331.54 555.947 364.666 552.96 365.691C548.974 367.752 509.261 361.278 503.321 357.078C497.381 352.878 482.46 355.919 474.51 355.874C466.561 355.829 438.694 364.004 430.745 363.959C422.795 363.914 413.814 371.154 405.831 377.358C397.848 383.562 374.933 394.89 369.959 395.903C364.985 396.916 360.989 401.06 355.993 406.24C350.997 411.419 337.063 415.506 324.151 414.392C313.215 415.372 304.233 422.612 281.396 419.358C281.396 419.358 245.613 421.239 235.621 431.598C225.662 435.708 223.663 437.779 222.631 445.064C219.611 452.338 209.641 458.531 197.684 464.713C185.727 470.895 180.742 473.991 180.742 473.991C180.742 473.991 177.744 477.099 182.718 476.085C187.692 475.072 166.753 488.494 166.753 488.494C166.753 488.494 166.731 492.66 173.714 487.491C180.698 482.323 189.668 477.166 192.655 476.141C195.641 475.117 213.594 462.72 217.591 458.576C221.587 454.433 226.595 447.17 231.579 444.074C237.564 439.941 238.574 436.822 250.509 434.807C262.455 430.708 274.39 428.692 287.302 429.807C300.214 430.921 287.291 431.89 290.2 445.446C293.109 459.003 292.143 453.79 294.109 457.967C293.098 461.086 290.123 460.028 285.116 467.29C280.109 474.553 275.113 479.732 274.113 480.768C273.114 481.804 273.081 488.053 276.079 484.945C279.076 481.838 285.094 471.456 287.081 471.468C289.068 471.479 285.06 477.705 286.037 480.836C287.015 483.966 289.002 483.977 290.034 476.692C291.067 469.407 317.035 444.557 317.035 444.557C317.035 444.557 340.949 432.193 346.933 428.061C352.918 423.928 354.905 423.94 354.883 428.106C354.861 432.272 353.85 435.391 360.778 440.638C367.706 445.885 372.669 446.954 375.622 452.179C375.622 452.179 374.579 461.547 373.547 468.832C372.514 476.117 373.491 479.247 372.481 482.366C371.471 485.485 364.521 484.404 357.582 481.24C350.642 478.076 355.572 485.395 358.548 486.453C361.523 487.512 368.484 486.509 373.425 491.745C378.366 496.981 367.408 502.126 361.412 508.342L338.431 532.168C338.431 532.168 334.467 530.062 330.459 536.289C326.451 542.515 312.474 554.935 312.474 554.935C312.474 554.935 286.616 558.955 280.654 558.921C274.692 558.887 273.726 553.674 269.751 553.652C266.765 554.676 271.717 557.829 257.827 553.584C244.915 552.47 235.956 555.544 233.979 553.45C232.003 551.355 228.017 553.416 228.017 553.416C231.146 559.329 223.882 563.069 217.015 566.894C217.015 566.894 208.044 572.051 204.048 576.194C200.051 580.338 198.019 588.659 196.998 593.861C195.977 599.063 196.976 598.027 196.976 598.027C196.976 598.027 199.007 589.706 200.018 586.587C201.028 583.468 209.033 573.098 212.019 572.073C215.006 571.049 213.984 576.251 220.979 568.999C227.973 561.748 230.971 558.64 234.945 558.663C238.92 558.685 263.756 559.867 263.756 559.867C263.756 559.867 274.681 560.971 278.634 565.159C283.585 568.312 299.517 562.152 304.48 563.222C309.443 564.292 310.442 563.256 307.4 574.696C304.358 586.135 302.327 594.456 300.328 596.528C298.33 598.6 290.314 611.053 281.332 618.293C272.351 625.533 266.366 629.666 262.381 631.726C258.395 633.787 261.359 636.928 261.359 636.928C261.359 636.928 261.348 639.011 266.344 633.832C271.34 628.652 268.321 635.926 274.305 631.794C280.289 627.661 282.276 627.673 284.275 625.601C286.273 623.529 295.277 612.123 298.263 611.098C301.25 610.073 297.22 620.466 297.209 622.549C297.198 624.632 296.154 634 301.139 630.904C306.124 627.807 301.206 618.406 305.236 608.013C305.236 608.013 314.361 573.693 317.37 568.503C320.379 563.312 340.363 542.594 347.346 537.426C354.329 532.257 381.308 504.288 385.294 502.228C385.294 502.228 417.191 483.66 420.177 482.635C423.164 481.611 429.148 477.478 419.145 489.92C409.142 502.362 402.081 522.112 399.094 523.137C396.108 524.161 385.172 525.141 377.245 520.93C369.317 516.719 369.306 518.802 371.283 520.896C373.259 522.991 380.209 524.071 383.173 527.213C386.138 530.354 388.125 530.365 391.112 529.341C394.098 528.316 396.074 530.41 397.04 535.624C398.006 540.837 398.972 546.05 394.954 554.36C390.935 562.669 383.94 569.921 378.922 579.266C373.904 588.612 373.871 594.861 359.882 609.363C345.893 623.866 327.885 646.678 317.915 652.871C307.946 659.064 310.921 660.122 293.046 657.938C277.136 659.931 268.166 665.088 268.166 665.088L260.238 660.877C260.238 660.877 257.252 661.902 259.228 663.996C261.204 666.091 264.191 665.066 265.179 666.113C266.167 667.16 256.175 677.519 254.188 677.508C252.201 677.497 252.167 683.746 257.152 680.649C262.137 677.553 264.136 675.481 272.118 669.277C280.101 663.073 294.012 663.151 296.988 664.21C299.963 665.268 300.951 666.315 289.005 670.414C277.048 676.596 258.085 692.112 255.099 693.136C252.112 694.161 244.129 700.365 225.311 688.802C203.461 686.595 189.605 676.101 189.605 676.101L170.83 656.206C163.902 650.959 158.929 651.972 152.012 644.642C145.095 637.313 148.081 636.288 143.107 637.301C138.134 638.315 125.221 637.2 120.259 636.131C115.296 635.061 112.32 634.003 110.344 631.908C108.368 629.814 108.357 631.897 108.357 631.897C108.357 631.897 110.333 633.991 109.334 635.027C108.335 636.063 104.371 633.958 103.372 634.994C102.373 636.029 104.338 640.207 110.3 640.24C117.261 639.238 120.248 638.214 131.161 641.4C142.075 644.586 139.122 639.362 149.003 649.833C157.907 657.174 159.906 655.103 167.822 661.397C175.738 667.691 178.724 666.666 174.717 672.893C174.706 674.976 178.669 677.081 169.721 678.072C160.772 679.063 177.637 684.366 181.622 682.306C185.608 680.245 201.463 688.667 204.427 691.808C207.391 694.95 192.437 704.239 180.49 708.338C169.521 715.567 149.593 725.87 144.619 726.883C144.619 726.883 136.669 726.838 133.683 727.863C130.696 728.887 134.671 728.91 130.685 730.97C126.7 733.031 104.795 741.239 99.8208 742.253C94.8469 743.266 79.9142 748.39 73.9854 742.107C67.0463 738.943 66.025 744.145 66.025 744.145C66.025 744.145 71.0099 741.049 72.9751 745.226C74.9403 749.403 73.9411 750.439 62.0171 750.372C50.0931 750.304 37.1699 751.273 30.2308 748.109C23.2918 744.945 15.3646 740.734 12.4223 733.426C9.48004 726.119 1.5639 719.825 1.5639 719.825L0.564698 720.861C0.564698 720.861 6.48243 729.227 7.47056 730.274C8.4587 731.321 11.412 736.545 11.401 738.628C11.3899 740.711 8.41443 739.653 9.40256 740.7C10.3907 741.747 16.3416 743.864 22.2815 748.064C28.2214 752.264 26.234 752.252 23.2364 755.36C20.2388 758.468 24.2246 756.407 28.2103 754.347C32.196 752.286 48.0836 754.459 52.0583 754.481C56.033 754.504 68.9451 755.619 72.9309 753.558C76.9166 751.497 79.9142 748.39 87.8636 748.435C99.7986 746.419 88.8185 755.731 85.8098 760.922C82.8011 766.112 82.7901 768.195 83.7782 769.242C84.7663 770.29 85.7987 763.005 91.7829 758.872C97.7781 752.657 100.787 747.466 110.746 743.356C120.704 739.246 135.637 734.123 135.637 734.123L159.529 725.926C162.516 724.901 200.397 702.201 203.384 701.176C206.37 700.152 217.328 695.006 221.292 697.111C225.255 699.217 243.141 699.318 238.123 708.664C233.105 718.009 226.111 725.261 224.09 731.498C222.07 737.736 215.02 755.403 211.989 764.759C208.958 774.116 205.938 781.39 198.966 784.475C191.994 787.561 185.011 792.729 169.134 788.473C156.255 781.109 158.22 785.287 156.222 787.358C154.223 789.43 142.311 787.28 135.349 788.282C128.388 789.284 114.466 791.288 102.486 801.636C90.507 811.984 89.5189 810.937 88.5307 809.89C87.5426 808.843 88.5086 814.056 88.5086 814.056C88.5086 814.056 82.4802 826.52 73.4874 835.843C64.4945 845.166 71.4558 844.164 59.4985 850.346C59.4985 850.346 54.5025 855.525 45.5319 860.682C36.5612 865.84 37.5272 871.053 37.5272 871.053C37.5272 871.053 40.5137 870.028 42.5121 867.956C44.5105 865.884 47.5081 862.777 51.4939 860.716C55.4796 858.656 59.4764 854.512 59.4653 856.595C59.4543 858.678 61.4305 860.772 62.4297 859.736C63.4289 858.701 62.4629 853.487 67.4589 848.308C72.455 843.128 73.4652 840.009 76.4628 836.902C79.4604 833.794 88.4532 824.471 89.4635 821.352C90.4738 818.233 91.4951 813.031 97.4793 808.899C103.463 804.766 116.431 795.466 123.392 794.464C130.353 793.461 153.213 792.549 153.213 792.549C153.213 792.549 164.149 791.569 169.09 796.805L175.019 803.088C175.019 803.088 186.876 815.653 187.842 820.867C188.808 826.08 186.732 842.733 186.732 842.733C186.732 842.733 185.6 868.765 182.603 871.873C179.605 874.98 175.608 879.124 175.597 881.207L177.573 883.301C177.573 883.301 178.584 880.182 180.571 880.194C182.558 880.205 189.475 887.535 188.443 894.82C187.41 902.105 180.339 923.937 180.316 928.103C180.294 932.27 178.23 946.84 180.173 955.183C179.14 962.468 176.154 963.493 181.094 968.728C181.094 968.728 185.058 970.834 186.079 965.632C187.101 960.43 184.225 940.624 186.267 930.22C188.31 919.816 197.358 900.078 195.415 891.735C193.472 883.391 189.542 875.037 190.585 865.669C191.629 856.301 196.791 819.876 196.791 819.876C196.791 819.876 196.857 807.377 202.841 803.245C208.825 799.113 206.849 797.018 208.825 799.113C210.802 801.207 211.723 814.752 211.723 814.752L218.519 844.996C218.519 844.996 221.417 860.635 221.394 864.801C221.372 868.967 222.283 884.596 222.283 884.596C222.283 884.596 228.179 897.128 223.149 908.556C218.12 919.985 215.111 925.176 216.1 926.223C217.088 927.27 219.064 929.364 220.074 926.245C221.084 923.126 222.117 915.841 224.115 913.769C226.114 911.698 228.112 909.626 228.09 913.792C228.068 917.958 228.978 933.586 228.956 937.752C230.922 941.93 227.869 955.452 222.862 962.715C217.854 969.978 221.829 970 221.829 970C221.829 970 222.817 971.047 224.816 968.975C226.814 966.904 234.885 944.035 234.885 944.035C234.885 944.035 233.908 940.905 237.872 943.01C239.859 943.022 238.871 941.975 238.871 941.975C238.871 941.975 232.942 935.692 234.963 929.454C236.983 923.216 230.199 890.89 230.199 890.89L230.354 861.727C230.354 861.727 233.352 858.62 233.363 856.537C233.374 854.453 230.409 851.312 229.421 850.265C228.433 849.218 219.739 802.299 220.76 797.097C221.782 791.895 217.896 775.208 223.935 760.661C232.928 751.338 236.892 753.443 239.889 750.336C239.889 750.336 245.862 748.286 240.91 745.134C235.948 744.064 233.916 752.385 228.953 751.315C228.953 751.315 232.017 735.709 245.995 723.29C256.986 711.895 264.014 698.395 277.947 694.307C277.947 694.307 292.902 685.018 299.874 681.932C306.847 678.847 326.764 670.627 332.76 664.412C338.755 658.197 337.711 667.565 341.664 671.753L352.533 683.272C355.498 686.413 350.524 687.427 352.478 693.687C353.444 698.9 350.468 697.842 354.421 702.03C354.421 702.03 358.374 706.219 356.364 710.374C354.355 714.528 322.402 743.511 322.402 743.511C322.402 743.511 308.458 749.682 303.495 748.612C298.532 747.542 299.487 754.839 301.474 754.85C303.462 754.861 309.435 752.812 311.422 752.823C313.409 752.834 317.395 750.774 311.389 759.072C305.383 767.371 297.4 773.575 293.392 779.801C290.384 784.992 287.408 783.934 286.387 789.136C285.365 794.338 274.374 805.733 271.377 808.84C268.379 811.948 266.381 814.02 261.418 812.95C256.411 812.734 238.844 823.613 244.465 824.311C246.441 824.562 250.449 820.179 253.435 819.154C256.422 818.13 259.408 817.105 261.396 817.116C264.382 816.092 262.362 822.329 265.348 821.305C268.335 820.28 269.345 817.161 269.345 817.161C269.345 817.161 266.358 818.186 274.352 809.899C282.346 801.611 289.34 794.36 290.361 789.158C291.383 783.956 307.359 769.465 307.359 769.465C307.359 769.465 308.347 770.512 310.334 770.523C312.322 770.534 313.332 767.415 313.343 765.332C313.354 763.249 330.341 745.639 330.341 745.639L353.322 721.813C353.322 721.813 356.32 718.706 359.284 721.847C363.248 723.953 368.166 733.354 367.145 738.556C367.145 738.556 368.078 750.019 371.031 755.243C373.984 760.467 378.848 780.284 377.837 783.403C376.827 786.522 377.738 802.151 377.738 802.151C377.738 802.151 381.591 825.086 380.58 828.205C382.557 830.3 383.545 831.347 382.523 836.549C381.502 841.751 385.421 852.188 383.412 856.343C381.403 860.498 388.364 859.496 388.375 857.413C388.386 855.33 387.519 831.369 387.519 831.369L382.723 799.054C382.723 799.054 384.721 796.982 387.685 800.124C390.65 803.265 392.67 797.027 392.67 797.027C392.67 797.027 384.743 792.816 384.776 786.567C384.81 780.318 383.91 762.607 379.969 756.335C376.027 750.064 373.173 726.092 370.22 720.867C370.22 720.867 368.255 716.69 373.295 703.178C378.335 689.667 387.395 667.846 387.439 659.513C387.483 651.181 389.625 622.03 389.659 615.781C389.692 609.532 402.759 581.484 403.791 574.199C404.824 566.914 417.813 553.447 416.858 546.151C415.904 538.855 420.844 544.09 421.799 551.387C422.754 558.683 427.706 561.836 427.617 578.5C427.529 595.164 433.469 599.364 433.469 599.364L432.469 600.4C431.47 601.436 438.387 608.766 438.387 608.766L441.385 605.658C441.385 605.658 444.349 608.799 445.326 611.929C446.303 615.06 448.257 621.32 448.246 623.403C448.235 625.486 450.2 629.663 452.188 629.675C454.175 629.686 449.257 620.284 451.266 616.129C453.276 611.974 452.276 613.01 446.348 606.727C440.419 600.445 435.467 597.292 435.489 593.126C435.511 588.96 433.535 586.866 433.579 578.534C433.624 570.201 428.694 562.883 429.704 559.764C430.714 556.645 419.878 538.877 421.877 536.805C423.875 534.734 433.642 516.322 440.25 512.579C446.868 508.825 455.894 493.253 467.829 491.237C479.764 489.221 489.525 481.173 497.09 480.581C504.655 479.988 523.607 466.555 530.59 461.387C537.574 456.219 562.521 436.57 570.492 432.449C578.463 428.328 616.389 397.296 621.385 392.117C626.381 386.937 659.288 365.251 664.295 357.988C669.302 350.726 684.257 341.436 689.231 340.423C694.205 339.409 716.099 333.284 728.056 327.102C740.013 320.92 757.943 312.689 767.88 312.746C777.817 312.802 784.789 309.716 788.786 305.573C792.783 301.429 830.608 289.145 835.571 290.214C842.532 289.212 857.443 288.255 870.344 291.452C883.256 292.567 893.215 288.457 904.084 299.975C918.951 307.35 931.863 308.465 936.804 313.7C941.744 318.936 964.571 324.273 969.534 325.342C974.497 326.412 999.355 323.428 1006.28 328.675C1013.21 333.922 1014.23 328.72 1014.23 328.72C1014.23 328.72 1018.23 324.576 1015.31 313.103C1012.39 301.629 1010.41 299.535 1010.41 299.535C1010.41 299.535 1002.49 295.324 994.569 289.03L994.559 289.019ZM311.063 444.512C306.067 449.692 297.085 456.932 298.084 455.896C299.084 454.86 297.141 446.517 297.185 438.185C297.229 429.853 302.203 428.839 315.137 425.788C328.072 422.736 342.971 423.862 342.971 423.862C342.96 425.945 316.059 439.333 311.063 444.512ZM194.882 803.19C192.873 807.344 189.864 812.535 189.864 812.535L178.017 797.887C178.017 797.887 183.002 794.79 187.965 795.86C192.928 796.929 195.925 793.822 196.914 794.869C197.902 795.916 196.891 799.035 194.882 803.19ZM386.721 596.35C383.277 603.111 380.353 609.25 378.258 614.404C377.819 616.724 378.124 619.059 379.678 624.036C381.632 630.296 377.635 634.44 378.579 643.819C379.523 653.199 371.419 682.316 369.409 686.471C367.4 690.626 367.344 701.041 363.359 703.101C363.359 703.101 360.372 704.126 358.418 697.866C356.464 691.605 359.472 686.415 358.495 683.285C357.518 680.154 347.615 673.849 346.649 668.636C345.683 663.423 340.742 658.187 347.748 648.853C354.753 639.518 377.735 615.693 377.735 615.693C377.896 615.277 378.087 614.83 378.258 614.404C378.371 613.811 378.533 613.208 378.745 612.574C379.311 610.827 383.298 602.965 386.731 596.34C388.328 593.214 390.024 589.963 391.801 586.609C391.801 586.609 389.442 591.085 386.731 596.34L386.721 596.35ZM469.939 466.241C468.929 469.36 462.956 471.41 459.969 472.434C456.983 473.459 451.998 476.556 446.946 479.204C441.893 481.852 435.011 494.166 425.003 501.952C415.005 509.728 408.012 524.229 407.035 521.098C408.056 515.896 415.062 506.562 420.069 499.3C424.088 490.99 433.08 481.667 440.053 478.582C447.025 475.496 451.011 473.436 461.969 468.29C472.927 463.144 469.929 466.252 469.929 466.252L469.939 466.241ZM622.562 355.659C622.562 355.659 608.585 368.078 602.6 372.211C596.616 376.343 581.628 391.881 575.644 396.014C569.66 400.146 547.7 418.77 541.727 420.819C541.727 420.819 528.748 432.203 517.79 437.349C508.819 442.506 499.827 451.829 481.952 449.645C468.051 447.483 466.064 447.472 461.09 448.485C458.104 449.51 458.115 447.427 454.107 453.653C450.11 457.797 446.169 451.525 435.199 458.754C424.23 465.983 419.533 467.29 410.419 473.342C401.304 479.394 395.309 485.609 384.373 486.589C373.437 487.568 375.447 483.414 375.447 483.414C375.447 483.414 378.063 482.772 377.765 481.01C377.456 479.259 376.534 465.713 377.545 462.595C378.555 459.476 379.576 454.274 382.552 455.332C385.527 456.39 386.526 455.354 388.503 457.449C390.49 457.46 390.501 455.377 390.501 455.377C390.501 455.377 385.658 452.34 386.114 450.728C386.569 449.116 387.559 448.069 384.572 449.094C381.586 450.119 372.67 444.861 368.718 440.672C364.754 438.567 357.826 433.32 360.846 426.046C363.866 418.772 371.859 410.485 371.859 410.485C371.859 410.485 381.862 398.043 396.784 395.003C411.706 391.962 413.748 381.558 418.722 380.545C423.696 379.532 435.653 373.35 441.615 373.384C447.577 373.417 470.459 368.339 479.408 367.348C488.356 366.357 511.194 369.611 516.146 372.763C522.097 374.88 533.022 375.983 533.977 383.28C533.977 383.28 532.933 392.648 520.987 396.746C510.029 401.892 500.048 410.168 488.113 412.184C476.178 414.199 469.194 419.368 462.244 418.287C455.294 417.206 457.293 415.134 450.365 409.887L440.472 401.499C440.472 401.499 436.509 399.393 436.498 401.476C436.486 403.56 439.462 404.618 441.438 406.712C443.414 408.806 448.344 416.125 450.32 418.219C452.297 420.314 456.26 422.419 451.264 427.599C446.268 432.778 438.286 438.982 430.314 443.103C424.33 447.236 428.305 447.258 419.356 448.249C412.384 451.334 407.399 454.431 406.4 455.467C405.401 456.503 408.376 457.561 411.363 456.536C414.349 455.512 419.334 452.415 419.334 452.415C419.334 452.415 422.298 455.557 417.313 458.653C416.314 459.689 419.279 462.83 422.276 459.723C425.274 456.615 433.267 448.328 440.24 445.243C447.212 442.157 452.219 434.895 455.217 431.787C458.214 428.679 470.172 422.498 475.145 421.484C480.119 420.471 490.078 416.361 497.039 415.359C504 414.357 510.995 407.105 518.955 405.067C526.916 403.029 530.924 396.803 536.886 396.836C541.859 395.823 545.889 385.43 549.875 383.37C553.861 381.309 556.836 382.367 567.817 373.055C578.797 363.744 591.775 352.36 598.748 349.275C605.72 346.19 608.728 340.999 622.629 343.16C632.565 343.217 630.589 341.122 635.541 344.275C636.518 347.405 622.562 355.659 622.562 355.659ZM657.003 314.775C657.003 314.775 646.632 314.133 639.737 302.637C632.842 291.141 632.875 284.892 632.875 284.892C632.875 284.892 639.781 294.305 641.746 298.482C644.711 301.623 652.518 305.959 657.003 314.775Z" fill="#474747"/>
</svg>
